<?xml version="1.0" encoding="UTF-8" standalone="no"?>
<svg
   xmlns:dc="http://purl.org/dc/elements/1.1/"
   xmlns:cc="http://creativecommons.org/ns#"
   xmlns:rdf="http://www.w3.org/1999/02/22-rdf-syntax-ns#"
   xmlns:svg="http://www.w3.org/2000/svg"
   xmlns="http://www.w3.org/2000/svg"
   xmlns:sodipodi="http://sodipodi.sourceforge.net/DTD/sodipodi-0.dtd"
   xmlns:inkscape="http://www.inkscape.org/namespaces/inkscape"
   width="900"
   height="738.17383"
   id="svg2"
   version="1.1"
   inkscape:version="0.91 r13725"
   sodipodi:docname="Flag_of_Belgium.svg">
  <metadata
     id="metadata14">
    <rdf:RDF>
      <cc:Work
         rdf:about="">
        <dc:format>image/svg+xml</dc:format>
        <dc:type
           rdf:resource="http://purl.org/dc/dcmitype/StillImage" />
        <dc:title></dc:title>
      </cc:Work>
    </rdf:RDF>
  </metadata>
  <defs
     id="defs12" />
  <sodipodi:namedview
     pagecolor="#ffffff"
     bordercolor="#666666"
     borderopacity="1"
     objecttolerance="10"
     gridtolerance="10"
     guidetolerance="10"
     inkscape:pageopacity="0"
     inkscape:pageshadow="2"
     inkscape:window-width="1600"
     inkscape:window-height="837"
     id="namedview10"
     showgrid="false"
     fit-margin-top="0"
     fit-margin-left="0"
     fit-margin-right="0"
     fit-margin-bottom="0"
     inkscape:zoom="0.65312309"
     inkscape:cx="432.46243"
     inkscape:cy="443.72365"
     inkscape:window-x="-8"
     inkscape:window-y="-8"
     inkscape:window-maximized="1"
     inkscape:current-layer="svg2" />
  <path
     style="fill:#fae042"
     d="m 521.47852,0 -4.78907,1.925782 -2.30273,3.78125 -1.40625,1.091797 -2.31445,1.783203 -0.27149,0.214844 -1,1.476562 -0.0312,2.46875 -3.50586,5.042969 -0.24219,2.373047 -2.33203,2.539062 -0.77148,2.080078 -3.44141,3.800782 -7.1914,0.947265 -1.75586,0.662109 -0.83594,-0.193359 -5.04883,-1.169922 -7.65039,-1.785156 -2.8125,-0.652344 -3.80469,1.976563 -1.04297,0.234375 -2.25781,-4.861328 -1.49804,-7.357422 0.46289,-4.953125 -0.52149,-2.966797 -12.82617,1.753906 -0.6875,-0.123047 -1.31641,-0.224609 -1.98437,3.162109 -3.14453,0.101563 -1.11328,0.384765 -2.19922,0.75586 -3.89063,2.597656 -10.69336,5.503906 1.36133,3.046875 0.60938,5.322266 2.92187,5.666015 7.9043,10.628907 -0.81055,0.847656 0.73047,2.863281 -3.9082,1.976563 -5.17969,0.845703 -1.26563,0.203125 -1.70312,-0.966797 -1.12891,-0.02148 -2.8457,-0.04883 -2.3457,-1.357422 -2.02344,-3.841797 -1.30274,-1.396485 -14.0371,0.845704 -0.15235,0.0098 -6.96484,0.419922 -4.30078,0.255859 -0.37696,1.251954 4.10352,3.34375 0.25976,1.435546 -1.99804,2.539063 -10.97461,13.574219 -17.3086,16.707037 -8.60937,4.02539 -0.39649,0.28711 -2.98046,2.1289 -2.70313,1.9336 -5.50195,-0.14063 -0.75977,-0.0195 -7.41601,2.35352 -2.07422,3.443362 -3.74805,3.61914 -5.27539,2.17187 -2.12109,-0.29687 -2.26758,-2.23243 -1.56836,0.62305 -2.38672,4.07617 -3.99414,0.73633 -2.56445,-0.39844 -0.50782,-1.30273 1.39649,-1.82813 0.52344,-2.66796 -1.33008,-1.21289 -1.46485,0.1914 -1.97656,2.79297 -1.51758,2.14063 -4.43945,0.75585 -3.83789,-0.38476 0,316.17969 4.9707,-0.82032 4.70118,5.03516 1.67773,0.64062 1.60937,-1.01757 0.98438,0.9082 0.57031,2.35352 3.86328,1.17382 6.26172,-1.83789 4.22852,-2.90234 1.28125,-0.88867 1.64844,-0.30274 1.23242,1.375 2.0664,-1.51757 1.93164,1.10937 2.17188,-1.26367 2.2168,-1.28516 2.35351,-0.10156 1.0957,-2.17969 1.63477,-0.54101 0.97852,0.91796 0.9375,2.10938 0.61718,1.38477 1.47071,1.36718 2.40039,0.85352 0.82422,3.05859 2.39648,0.85742 1.47266,1.36524 2.31445,4.89453 2.06055,-1.5 1.92578,0.86523 2.68945,2.80469 0.53711,0.56055 0.94727,0.98828 0.83007,3.2207 0.55664,2.19141 -0.38281,2.39258 0.54492,1.87695 1.41211,-0.0508 0.76563,1.39453 0.0859,2.36523 1.25195,1.85547 2.83203,0.13477 3.71875,-1.33594 0.38281,-2.38476 -4.11328,-2.9375 0.38672,-2.14844 1.34961,-1.71289 1.63281,-0.54102 1.45899,1.13086 0.7832,2.10938 1.70703,1.35742 3.31055,0.35742 1.52539,0.79492 1.65039,2.16992 1.0332,2.33204 -0.35156,3.34375 -1.3418,1.94921 -7.11133,5.25782 -0.38281,2.39453 -1.54687,2.66992 -3.50782,0.61133 -0.66211,1.21484 2.33204,5.60547 -0.58204,3.35156 -1.33593,1.94727 -1.06836,2.89453 0.17383,0.71289 0.29101,1.17188 0.64258,2.58789 -4.32813,3.73242 0.12696,3.32226 -1.74219,3.62891 1.4707,1.61133 2.36524,0.37695 2.0957,-0.56055 2.73438,-2.24218 3.48828,0.27343 2.64453,0.20313 1.90625,0.64258 -0.38281,2.39648 0.10937,0.64063 0.48633,2.89453 -0.84766,2.40625 1.24414,1.49805 0.48047,0.58007 -0.66992,0.96875 0.0352,0.94727 2.16992,1.58984 2.46875,3.23242 1.75195,3.01563 0.0723,1.89453 -0.8711,1.9375 -6.42968,3.8125 -1.56836,1.95899 -1.8418,1.01757 -2.37305,-0.62109 -2.8125,0.0996 -1.13476,1.00195 -3.06446,5.81836 -0.65039,1.44727 -0.0254,1.66992 0,3.80273 1.0625,3.28321 1.86524,-0.0723 1.96679,2.29297 -1.14062,1.74414 -2.84766,4.35156 0.52149,1.40821 1.43945,0.89453 3.70703,-1.0918 1.65235,0.4082 0.25195,0.67383 0.27344,0.73438 2.11132,0.15429 1.67969,1.11914 -0.33008,3.57618 0.97852,1.15429 2.07422,-0.79687 1.71875,-0.0586 1.32226,-0.0527 2.56836,-0.33594 4.14649,-1.81445 7.2539,-0.27735 2.30078,-1.02734 2.95704,-0.28516 1.01953,-0.10351 4.26562,1.50977 1.17188,-0.041 2.44531,2.99609 1.66992,0.88672 7.04102,0.46875 1.21875,1.375 1.90625,0.88672 2.32031,-0.56055 6.60937,1.79688 1.89649,0.51758 1.21875,1.38672 3.01953,-0.58204 5.54297,-2.15039 1.16016,-0.45898 5.83984,-0.42774 3.64453,-3.21093 1.32422,-2.23047 1.11914,-1.88477 1.62305,-0.5332 2.81054,0.14648 2.78125,-1.05078 1.97657,-4.09765 2.7832,-1.04102 7.01953,-0.23242 1.59375,-1.46875 4.67578,-0.38672 1.19922,-0.31445 0.89453,-0.23633 1.3711,-0.98828 4.90234,-0.63281 1.10937,-2.16993 0.30469,-5.23828 2.16602,-6.00586 1.43164,-6.92773 -0.53711,-2.35547 -4.24024,-0.58008 -0.28515,-1.65234 1.54883,-2.9043 0.4082,-2.15234 1.04492,-1.79102 1.80078,-3.09961 0.94727,-1.63086 6.46289,-3.75976 2.58008,-0.082 1.375,-1.23438 1.33398,-2.65234 0.375,-3.09375 1.78516,-3.38477 0.99218,-0.67383 6.11133,-4.13672 0.96485,-0.65234 2.10156,-0.5293 1.79492,-2.90625 0.42383,-1.68164 1.4375,-0.48047 1.63281,1.95899 1.2461,1.48828 5.2246,1.74219 4.44727,-0.60156 0.73828,1.17382 0.0449,1.66211 3.61133,2.98438 -2.67578,2.11914 -0.99219,0.78711 -2.54297,2.01562 0.34571,3.79102 -0.58399,4.52539 0.97266,1.16406 -0.15625,2.85352 -0.92188,0.49609 -1.74218,-3.50586 -3.98047,0.34961 -0.41016,2.38477 0.99219,1.87109 -0.88672,1.69336 0.0625,2.36719 -0.86719,2.40234 -3.26562,0.57227 0.57422,3.78125 -0.7168,0.95898 3.64258,2.99805 0.0508,1.89453 -4.56445,4.4043 -1.27539,4.55468 1.2246,1.86328 -0.64843,1.91602 0.53711,2.35547 -0.22657,0.56055 -0.81054,2.02734 -1.36719,3.42383 -2.56055,0.55078 -0.88086,1.92578 -1.02343,5.24805 1.94922,2.5625 1.41992,0.35351 6.125,1.56055 2.34179,-0.0723 2.15235,1.60157 1.99023,4.21875 1.45117,1.85742 2.62696,1.82226 0.77539,2.58789 1.08984,5.66993 -0.41406,1.91406 -2.68359,4.35156 -0.61719,1.73438 -0.90625,2.54883 -0.91992,2.58789 -0.375,1.05078 -1.62891,0.27343 -0.20703,0.95704 1.10156,5.9121 3.06641,1.08985 -0.14258,3.33398 1.75195,4.21875 -0.20508,1.19336 -2.03906,1.9668 -1.71875,5.50391 -0.9082,0.97851 0.27929,1.41602 2.81446,0.63476 0.88086,-1.92773 0.93359,-0.0332 4.26563,2.5 2.81445,0.38672 3.24609,-0.56054 5.54297,-2.0586 0.18945,-1.66211 2.75196,-1.74218 0.58203,0.34765 1.32031,0.79492 1.14649,-0.7539 1.86523,-0.041 2.81445,0.63086 1.67969,1.60938 0.64258,1.18164 2.29297,4.21094 3.32617,2.2832 4.01367,2.02734 1.87891,0.42774 2.30664,-0.77344 0.97461,1.39648 0.75195,2.11719 0.8086,0.0527 1.75781,0.11133 2.54101,-1.00781 1.65821,1.14258 6.30859,9.92773 0,-595.937502 -5.02539,-6.705078 -1.25781,-1.271484 -4.47852,-4.527344 4.53125,-11.996094 -1.93164,-10.353515 -1.80859,-5.748047 -6.20313,0.0078 -0.77929,-0.783203 -0.9336,-0.949219 -0.58203,-4.890625 -1.35547,0.183594 -1.38672,1.466797 -3.91601,4.167969 1.34765,5.017578 -0.88086,1.058594 -0.69336,2.242187 -3.26757,3.160156 -14.69532,14.228516 -1.77148,1.710937 -1.05469,0.01953 -5.46484,-6.236328 -0.69336,-0.234376 -1.75,-0.582031 -5.5625,1.039063 -3.63672,-0.486328 -11.15625,0.904296 -3.94727,-0.61914 -2.76953,-1.408203 -0.61718,-5.484375 2.86132,-0.529297 10.53321,3.566406 -0.25782,-3.708984 -0.92187,-0.570313 -0.17383,-0.355468 -1.99219,-4.201172 0.52539,-3.50586 2.42579,-1.101562 -0.22266,-4.105469 1.63477,-3.128906 -0.43555,-0.734375 -1.60156,-0.753906 -2.02149,-4.199219 -7.01953,-1.875 -0.93945,-1.478516 -0.17578,-0.275391 z m 32.83593,15.455079 -1.95703,9.673828 8.38867,2.029297 6.71094,-9.945313 -13.14258,-1.757812 z"
     id="rect6"
     inkscape:connector-curvature="0" />
  <path
     style="fill:#ed2939"
     d="m 600,52.691407 0,595.697263 1.96484,3.0918 -0.58789,4.52344 0.72461,1.17383 2.78711,-0.3086 0.49414,1.17188 0.93946,0.45312 1.5625,-2.88672 1.40039,-0.0312 1.4707,3.28321 0.24023,2.25 0.0645,0.59375 -0.40821,2.38476 0.94532,0.68164 3.01562,-0.53906 3.74024,0.85352 1.14843,-0.74219 1.625,-0.041 0.98633,2.35547 1.17969,0.44922 2.08203,-0.5332 4.43359,0.61328 3.18946,-3.16016 2.34765,0.88672 3.80469,3.71094 4.96484,3.45312 1.71875,1.95899 1.14063,1.29297 2.89648,4.68945 -2.50195,2.66016 -2.47656,3.86328 -0.62696,3.09765 1.74219,5.42188 0.44141,-1.20117 1.82812,-1.46875 4.85547,-1.05078 -0.29297,-2.8418 2.06836,-1 2.61914,2.79297 1.62696,-0.041 1.95898,0.89649 2.5,1.15234 0.5625,0.51172 9.37695,8.52539 -0.41992,2.14258 2.24219,7.55078 3.5,0.87891 -2.67773,5.51367 3.52734,2.30468 2.13672,2.80079 0.13281,1.51171 -1.99219,1.62696 -2.16015,2.38672 -1.3125,0.20508 -0.52539,0.0508 -1.41407,0.90429 6.20508,3.57032 0.61914,2.75195 2.4336,2.63867 0.11523,-0.68359 0.4668,-2.77344 1.67383,-2.37305 5.23632,0.31446 3.49414,-1.40625 3.57227,-1.66016 3.02734,-4.58789 1.79493,-0.27539 2.70312,0.28515 5.53711,3.08789 0.91406,0.81836 1.36914,3.50586 2.13282,0.71094 1.00195,-2.25 0.6543,-1.46875 -0.89258,-4.51367 1.02344,-2.19336 2.42382,-1.88477 0.63477,-1.4375 3.32226,-1.98632 1.57422,0.13086 5.11328,0.38867 5.88672,2.45703 4.83008,0.34375 0.38281,-1.77149 2.13282,0.30665 0.67187,1.33593 1.48633,0.5586 1.95898,-0.5293 0.0566,-1.50977 0.88086,-1.27343 -0.19922,-2.51758 1.01172,-2.07813 2.94922,-1.07812 2.29492,1.68945 0.93164,0.69141 1.58985,2.07031 1.72265,0.22266 1.29883,-0.60157 0.86133,0.92774 0.73828,0.78711 0.72656,0.77343 2.125,-1.72265 2.60157,-2.09961 1.23633,-0.99805 0.97265,-0.78515 4.40821,-3.56641 2.17773,-1.76563 -1.25586,-2.1582 1.03711,-2.27344 -1.40039,-0.48828 -2.86133,0.375 -0.69726,-3.25976 0.3164,-0.83789 5.19922,-3.00586 0.0254,-4.53516 2.21094,-3.42383 0.35742,-0.55078 -0.0195,-1.8457 0.5625,-0.12891 2.45703,-0.58398 1.38086,-1.19141 -0.10547,-1.27539 -0.60547,-3.24023 0.39258,-1.00977 0.0918,-0.4082 0.53125,-2.29297 0.64843,-0.50977 -2.31445,-1.47656 -9.40625,-3.55664 0.0918,-0.24609 1.01758,-2.70899 0.68554,-4.20117 4.53907,-4.75781 -3.36524,-5.32227 -1.65234,-0.90625 -1.8086,-0.0527 -2.76757,1.63086 -3.72071,-1.53711 -0.4414,-2.00977 0.85546,-3.70898 -0.10937,-2.00781 -1.5625,-1.44727 -1.01758,-0.94922 -1.27734,-2.88281 -6.03516,-13.61524 -1.70508,1.61915 -2.55468,-0.46876 -3.85743,0.81641 -0.35546,-7.0332 -0.84375,-1.49805 0.18164,-4.45508 -1.63477,-2.375 -0.64062,-0.93945 1.87304,-1.45508 0.70703,-2.36328 0.0449,-2.42773 2.19921,-1.62891 -1.61523,-3.49609 1.05664,-0.9375 0.0859,0.0117 0.85351,0.1289 1.85352,0.28516 1.11719,0.17578 0.55078,0.082 1.03711,-0.66406 0.84375,-0.53907 -0.41602,-1.11328 -0.27148,-0.72265 -2.34766,-2.65039 -2.41797,-1.4668 -2.9707,-0.37695 -3.41992,-2.71094 3.3164,-3.83008 2.3086,-1.99023 0.95508,-0.82618 0.0898,-4.78124 1.7168,-1.20118 1.19921,-2.69922 -0.87304,-3.08984 1.92383,-3.97461 1.4707,-1.28515 2.13477,-0.61133 2.73437,0.71484 1.38672,-1.2832 -0.44141,-1.75391 0.90235,-0.92773 1.39843,-0.19532 2.95118,-1.63867 0.15625,-0.46875 1.1914,-3.6582 -2.49609,-1.30664 -0.0449,-0.10352 -0.83399,-1.90429 -0.13086,-0.29688 -0.27343,-0.60937 -0.55079,-3.85547 0.81055,-1.17969 5.99024,-3.10937 1.76953,-3.62696 -0.0117,-1.34765 2.67578,-3.47461 -0.0977,-1.25 -2.68945,-3.07032 -0.26563,-1.58984 0.79688,-2.19141 3.18945,-2.47851 2.15039,0.0527 1.47852,-1.27539 0.47461,-1.51758 -0.5332,-2.8457 0.76757,-1.98633 1.07617,-2.81054 0.2129,-2.77344 1.69726,-2.79297 2.87891,-1.79492 9.65234,-3.56641 0.82422,-7.05078 1.30273,-1.78516 -0.66992,-0.4082 -0.44531,-4.49219 2.85742,-1.82812 4.97852,-0.0586 5.60937,-2.7539 0.45313,-0.0293 0.79101,-0.0625 0.35938,0.26758 0.64453,0.47852 0.55273,4.68554 1.25586,1.32617 3.87696,1.46485 0.20703,0.0859 1.75781,1.66015 1.4082,-0.0215 1.89844,-0.9375 0.97852,-1.61133 0.46093,-3.60547 6.25977,0.77539 0.63086,0.082 2.3457,2.06641 -1.30859,2.0293 1.18555,2.25195 -1.38282,3.36133 2.18555,2.83203 3.0625,1.90039 0.78906,-1.43946 0.70703,-1.08984 1.40625,-0.10156 1.47266,-2.11133 -0.94727,-3.25977 -1.56836,-0.0293 -1.10937,-0.0215 1.25781,-1.75195 0.40235,-0.5293 -1.52539,-3.26367 1.95312,-4.28906 0.54492,0.29297 1.70508,0.93945 1.0625,-1.51953 1.57422,-0.51953 4.48633,0.79687 0.55664,-2.10156 -1.4375,-3.25976 0.2207,-3.19336 -0.5332,-3.93164 -0.90625,-1.38868 -2.02344,-1.01562 -1.17383,-1.24414 1.01953,-0.72266 0.88282,-0.63476 -0.0996,-1.51953 0.19531,-0.50782 0.36328,-0.93945 0.25195,-0.65234 0.75196,-0.15235 0.83203,-0.17383 1.65039,0.37696 1.49219,-0.9375 1.30859,-2.10743 0.55664,-2.5996 0.59766,-0.66407 3.21093,-1.38476 1.72852,-1.19141 4.40234,-0.95898 2.06055,-1.35547 4.4082,0.29492 4.12305,-4.21875 -1.59375,-2.17188 0.47266,-3.44531 1.40039,-1.59961 0.71875,-3.69922 0.99804,-0.98828 1.23243,-1.21289 0.8164,-2.17969 2.4961,-0.10156 0.74609,-0.68359 1.49805,0.16211 2.3457,1.00976 2.07422,0.88477 1.93164,2.25391 6.54101,-3.98633 2.50391,-0.084 0.49024,-0.0176 0.57812,-1.18359 -1.03711,-6.61133 -6.44922,-5.83203 -0.8457,-1.50781 -1.17774,-1.46875 -4.77734,-4.19922 0.98438,-2.69141 5.1914,-7.91796 -0.53711,-2.56836 -0.23437,-1.11133 0.72656,-2.94336 2.1543,-3.2832 -0.28711,-5.11719 -6.24805,-3.80078 -1.12695,-0.6836 -0.32032,-1.30664 -0.41992,-1.73047 0.41992,-0.96875 1.10938,-2.53711 -0.18359,-2.89453 -3.44727,-2.20117 -4.60352,-1.04883 -0.75,-0.59375 -3.2539,0.69532 -1.00586,-0.32618 -1.76953,-1.91797 -3.08594,0.28516 -1.58008,0.76563 -1.38086,-0.79688 -0.63672,-0.36523 -1.75,0.35742 -3.40429,2.20117 -1.3418,-0.15234 -1.96289,-5.35157 -1.3418,-0.32617 -0.5,-0.875 -1.19922,-2.13086 -2.45117,-3.2539 0.91016,-1.50586 0.0625,-1.4375 -0.84766,-1.58008 -1.08203,0.58984 -1.5957,-0.73242 -0.68164,-1.33594 0.13672,-3.27148 -0.9336,-1.58984 5.81641,-4.49415 1.65039,-2.2832 3.49023,-3.1289 1.23047,-2.78321 1.3418,0.32617 1.9375,1.99805 1.16016,-1.10156 0.48632,-2.4668 0.64258,-3.25195 2.32813,-2.02734 1.89843,-3.20899 -0.0254,-2.84375 -5.51562,1.04883 -2.60156,-0.49024 -0.81055,-0.3457 -3.8125,-1.61914 -3.7793,-0.56055 -2.24219,1.70313 -1.5039,0.26367 -0.5957,-0.83594 0.15625,-1.09179 -1.51563,-1.16211 -1.28516,-2.66992 2.91016,-2.78126 1.4707,-1.40624 -1.15429,-0.40821 -2.43555,-0.86523 -0.93945,-1.94727 -1.71289,-3.56836 -1.09375,-0.57226 -0.94141,-1.41602 -7.30469,-9.66211 -0.79297,-3.35351 -1.8789,-3.33203 -5.59375,-0.0293 -4.3125,-0.0293 -1.52149,-0.82812 -1.42773,0.10351 -1.73633,1.86328 -1.86719,-0.16211 -0.73828,-0.0605 -0.61523,-2.5586 -0.17578,-0.71289 1.78906,-4.70898 -0.69336,-2.00977 -3.46875,-2.3125 -5.29688,-0.53125 -4.52929,0.3086 -1.68555,-0.5625 -1.29883,-2.58789 -2.60547,-0.13282 -3.50586,1.54883 -1.25,0.29688 -2.10156,0.5 -1.66601,1.02734 -1.17383,0.10156 -2.19727,-0.89648 -1.49609,0.9375 -0.61328,0.0469 -0.89844,0.0645 -1.10156,-0.9961 -0.61719,-1.91601 0.40234,-1.51953 -1.12109,-1.83399 -1.99609,1.36524 -2.59961,0.54101 -0.53907,0.44727 -2.36523,1.94531 -0.79102,-2.50586 -0.76562,-0.66406 -6.83789,3.79101 -2.18555,-0.22265 -3.51953,-5.23828 -2.25586,1.04101 -1.69922,-4.50586 -0.40039,-1.08203 -1.76367,0.11133 -3.64453,3.32422 -2.14453,2.7207 -0.29102,2.77344 -1.75195,0.0703 -1.01758,0.0527 -1.50391,-2.17188 -0.006,-0.0117 -0.0391,-0.0586 -1.08398,0.69336 -1.9961,1.28125 -0.17382,-0.11133 -0.75977,-0.45899 -1.81445,1.79297 -1.17383,0.18555 -0.0195,-0.0156 -1.54883,-1.16797 -0.38867,-0.29493 0.20117,-0.3457 3.80469,-6.5957 -0.0254,-1.68164 -1.76367,-4.75977 1.13476,-2.86328 -0.44922,-1.42578 -0.0312,-0.0371 -0.13086,-0.14453 -1.11914,-1.2168 -4.23437,-5.54297 -3.41016,-2.77148 -1.26367,-1.0293 -1.20703,-8.10156 -0.082,-4.58789 0.875,-0.81641 2.96875,-2.7832 0.20117,0.0215 1.97656,0.24414 0.31055,0.041 1.01172,-0.83594 0.73828,-0.60156 0.60937,-1.26367 0.48633,-1.00977 0.62305,-1.29297 0.14258,-0.61132 0.54492,-2.33399 0.30469,-1.30469 0.76562,-0.21484 1.49219,-0.41797 3.04492,-0.85547 1.41992,-0.39843 2.02149,-6.73633 3.48828,-3.94336 1.36132,-3.9043 1.10157,-0.85547 0.30469,-0.23633 -1.32227,-2.82226 -0.1543,-0.32617 -0.35742,0.12304 -4.94531,1.73242 -0.32031,-0.37695 -1.13282,-1.36523 3.125,-4.64844 0.33008,-1.41602 5.62109,-4.67773 1.17969,-3.21094 0.52344,-1.41601 0.51953,-2.80274 1.1211,-6.04492 -3.23438,-1.72266 -0.0254,-1.76367 2.08789,-4.55469 1.00977,-2.20312 0.3164,-2.47656 0.31445,-0.13086 1.29493,-0.53125 0.16211,-0.0723 0.43359,0.29688 2.08789,1.42578 0.41992,-0.69141 1.32422,-2.16015 -0.0312,-2.1211 0.33008,-0.91797 0.69336,-1.91601 -1.4707,-2.80274 -0.0273,-1.76367 0.35742,-0.27539 1.05078,-0.81445 3.57032,0.30664 0.45312,-0.12305 2.39258,-0.63086 0.55664,-2.37695 0.10938,-0.45703 -0.30274,-0.12305 -4.71875,-1.91601 -0.0137,-0.63086 -0.0332,-2.20313 0.0469,-0.13086 0.97852,-3.05664 1.30078,-0.45117 2.95703,-1.02734 1.76367,-1.79688 1.38867,-2.48242 0,-0.0547 0,-0.16015 -0.0391,-2.61133 -2.91797,-2.24219 -2.10742,-0.0801 -0.73828,-0.77539 -3.13867,0.41602 -1.33985,0.18554 -0.52539,-0.87695 -0.0391,-2.11914 -1.21875,-0.32617 0.47852,-1.42774 -1.45703,-1.74218 -0.7793,-0.35743 -9.66406,-4.42187 -5.34961,0.79297 -3.55274,1.46875 -3.53125,-0.66211 -4.29883,-0.81641 -0.0117,0 -0.75977,-0.14258 -1.43164,-1.51757 -14.85156,-2.40625 -2.41211,-4.04688 -2.85938,-3.4043 -0.004,-0.01 -0.20899,-0.2461 -1.61719,-0.94531 -3.55664,-1.99804 -0.73047,-6.972662 0.0508,-1.30469 0.21289,-5.51367 0.0391,-0.9082 -4.60352,-4.28907 -12.21289,-8.236324 -3.36328,4.474609 -0.60351,0.804685 -5.0625,2.92578 -2.36524,0.32422 -1.38867,0.19532 -2.77344,4.06835 -4.23242,-0.98046 -0.29883,-0.0703 -11.36523,-2.6289 -2.30664,4.79883 -3.31836,-0.36524 -15.96094,0.3457 -3.125,1.5586 -1.42969,-0.5625 -0.69531,-0.27344 -2.48438,-2.91211 0.13672,-0.41016 4.07813,-12.619136 -5.0625,-3.738282 -1.34961,-0.908203 -1.86719,-1.253906 -9.59375,2.314453 -3.61719,0.08203 -2.88281,-0.673829 0.50391,-4.02539 -2.55274,-8.695313 -0.084,-0.294922 L 600,52.691407 Z"
     id="rect4"
     inkscape:connector-curvature="0" />
  <path
     d="m 191.86328,48.00586 -1.85351,0.416016 -2.63868,1.802734 -6.85156,2.050781 -9.10937,2.732422 -4.62696,2.822266 -3.65625,0.917968 -1.1875,0 -2.44922,0 -1.60742,1.916016 -1.5957,0.691406 -0.3418,-2.201172 -1.875,-0.132812 -1.90429,2.621094 -1.20118,0.21289 2.07422,-4.546875 -1.22461,0.07227 -1.75781,1.671875 -1.09961,3.496094 -1.73242,1.089843 -7.39649,2.783204 -4.54492,1.710937 -2.42968,0.917969 -9.28516,4.740234 -6.75195,5.974608 -12.6543,8.44726 -5.632813,2.8125 -4.623047,3.20117 -2.59375,1.79297 -2.837891,0.90625 2.060547,3.589852 -0.179687,1.35351 -1.052735,-0.58984 -1.140625,-0.64453 -0.578125,-1.578132 -0.02344,-0.0703 -0.05859,-0.0215 -1.755859,-0.64258 -1.34961,1.947262 -0.908203,0.72266 -0.0059,0 -8.9375,7.08594 -10.238281,6.66406 -3.785157,2.45703 -6.96289,4.52539 -7.816406,4.26953 -3.625,1.97852 -0.34961,0.24414 -5.361328,3.77148 -7.208984,3.00586 -6.837891,3.56836 -0.01953,0.01 -0.16211,0.0918 -0.921875,0.52149 -5.955078,3.39258 -1.330078,0.99804 -3.138672,2.36524 -1.3847654,0.69531 L 1.640625,150.53711 0,151.4043 l 1.1015625,3.29102 0.5,1.38671 1.0761719,2.59961 0.5566406,1.34571 0.2421875,0.57031 0.4511719,2.60937 2.3945312,13.86133 -0.8300781,3.1582 1.6523437,4.94532 0.6601563,0.47656 1.3691406,1 4.9980469,1.55859 0.570313,1.06055 -0.285157,2.2832 1.236328,3.88282 0.449219,0.63086 1.490234,2.11132 1.5625,5.03321 -1.951171,2.72461 -0.408203,1.61914 -4.958985,5.34961 -1.875,2.01953 1.173828,1.2832 2.464844,0.19141 0.503906,3.02929 1.251953,2.49805 -0.617187,5.24805 1.03125,1.70117 -1.0625,2.08203 0.701172,3.32227 -2.705078,5.61328 3.041015,0.0723 0.720703,0.71289 1.023438,3.14063 1.957031,3.1582 1.173828,5.64844 4.394532,0.25195 1.05664,-0.56054 2.277344,-2.98633 0.77539,0.42969 1.394532,0.7832 0.382812,0.51953 1.082032,1.5 1.464843,0.50977 3.507813,-0.54102 2.716797,0.43945 0.90625,0.67188 0.765625,0.57226 0.589843,1.48828 -0.486328,3.30079 0.304688,0.81445 1.517578,1.51953 0.630859,2.23242 3.847656,2.55664 2.625,3.29297 1.207032,3.4668 -0.570313,1.79297 4.121094,1.52929 1.070313,2.4668 -0.05859,3.52539 1.720703,3.60742 5.007812,3.18164 2.126953,-0.30664 4.824219,-2.44531 1.91211,1.15039 1.412109,2.7832 1.53125,1.92969 1.089844,1.3711 2.980468,0.084 1.056641,0.0293 1.089844,1.45898 1.683594,0.55859 0.527343,-0.21484 1.509766,-0.59961 1.308594,-0.41992 2.054687,-0.66211 0.304688,-2.66016 0.501953,-4.27929 0.632812,-1.45703 1.400391,-0.56055 0.863281,-1.71289 -0.410156,-3.06836 2.931641,-3.00781 0.875,-0.0508 3.589843,-0.19141 1.00586,-0.0625 2.347652,-1.9043 1.02344,-1.84765 2.35156,-0.60157 2.2832,-1.70117 1.1543,-0.85547 1.00391,-0.0508 2.17968,-0.11914 0.6211,-0.0312 4.16797,-2.36719 0.6289,-0.10156 1.49805,-0.24414 1.38086,0.5 3.73437,1.36524 1.24414,-0.0625 0.89454,-0.0508 5.23046,-4.54492 0.79297,-0.21289 2.58985,-0.67383 1.91992,-0.5 1.53516,-0.4082 2.71874,1.76367 -0.11718,2.38477 3.95312,7.16406 2.73633,2.23242 0.36328,1.36719 0.51758,1.91602 1.03711,1.61132 2.7168,2.06836 0.6875,1.97656 -1.39258,2.34376 2.66992,1.29492 1.55664,2.52734 4.38281,0.28711 1.53321,0.53906 0.57226,0.20313 3.33008,4.58594 -0.0371,2.08007 -0.0215,1.06055 2.69726,3.63672 -0.71094,0.87695 -4.91406,2.42774 -0.72656,1.2832 -0.33008,2.86523 0.88086,3.2793 1.04297,1.85742 -0.60156,2.15821 0.5,1.37695 1.43554,3.99609 1.60157,1.84375 2.94336,3.39453 0.0527,1.10938 0.0977,1.91797 0.084,1.72265 0.77148,1.14258 -0.55664,3.11719 1.37305,3.74023 -0.47265,1.86524 -0.31641,1.26367 1.32617,2.7832 -1.61133,1.03711 1.25586,1.35742 -0.86133,1.71094 -0.2539,4.52735 2.22461,2.81054 1.57617,1.99024 10.25586,5.91015 4.08789,1.22461 4.73242,4.75977 1.66016,-0.082 0.54492,-0.6543 2.36719,-2.82031 2.11718,-0.33789 2.38672,0.35547 2.28906,-0.89649 0.50586,-0.19336 0.66211,-0.97851 1.01563,0.0723 0.90234,0.0606 2.125,0.14258 1.40039,-0.53907 1.23828,-3.86328 2.8711,-4.41211 5.48633,0.69141 4.12304,1.93555 1.4961,1.60156 -4,5.07617 -0.47266,0.59961 -0.83789,2.41406 0.64063,3.53907 3.76367,-0.65235 5.11328,-2.13867 3.54687,-0.17578 3.03321,-1.08789 2.18359,1.08789 2.24219,2.50976 1.63476,-0.55273 3.2168,-2.2832 1.08203,0.47851 4.88086,5.65821 0.70703,2.71093 0.1543,0.58008 3.45508,3.16992 1.43945,0.40821 1.50391,1.83593 -0.006,1.65039 -0.0195,3.10743 1.13281,1.82421 1.16211,1.875 -0.0664,3.23243 1.11524,4.32031 -0.082,1.29687 -0.17773,2.56641 0.53125,2.30469 -2.79297,6.30859 -0.76953,3.83008 0.31055,1.65234 0.98437,0.90821 0.40235,3.78125 1.77539,2.77148 0.65429,4.01563 2.25782,2.98632 -0.40235,1.68165 2.23047,2.27343 2.65039,1.30274 0.93359,-0.27539 -0.38281,-3.31055 0.67578,-0.74219 3.89453,2.67774 0.65626,-1.21289 -0.41016,-4.02539 1.31055,-4.61524 2.10742,-3.61914 2.42383,-0.50977 1.13476,0.83399 3.43555,-2.52539 5.71679,1.17187 3.27344,-0.85351 -0.1875,1.19922 1.74414,2.06054 0.91992,-0.51172 0.4004,-1.68164 1.89648,-0.3125 0,-315.91601 -5.83594,-0.58399 -1.07617,-0.11132 -0.9082,-0.58985 -0.13477,-0.0918 -1.84765,-1.21289 -0.53125,-6.216792 0.53125,-5.44141 0.73828,-2.05859 -0.71875,-1.91602 -2.82813,-1.65234 -2.39062,0.85547 -2.55274,-2.91602 -0.39648,-0.0312 -3.26758,-0.31445 -2.9375,0.19336 -3.41016,-0.58008 -0.13476,-0.0215 -5.16602,-2.48632 -7.71484,-0.79688 -1.5293,-1.38476 -2.63281,-0.13086 -1.83398,-0.927738 -6.82032,-4.933593 -2.38476,-1.039063 -0.0957,-0.03906 -0.041,0.01758 -1.08985,0.529297 -0.57617,1.355469 0.17578,3.773437 -0.68164,0.539061 -1.08203,-0.753905 -2.49023,-1.734375 -0.90039,-0.152344 -2.61914,1.447266 -2.25586,1.111328 -4.19336,-2.140625 -0.5586,0.111328 -0.26562,0.05273 -0.12891,0.314453 -0.21289,0.519531 2.13672,15.492193 -2.86914,0.63281 -4.3457,0.95703 -1.93555,0.13477 -4.63086,0.31445 -2.61133,0.17187 -2.64062,-0.2832 -0.18555,-0.0215 -2.3418,-0.77344 -1.16601,-0.38672 -1.52539,-3.71094 -1.52149,-1 -3.99414,-3.98437 -4.88867,-4.87305 -0.43555,-0.53711 -3.50976,-4.3125 0.0703,-1.140625 0.73438,-0.664063 1.1582,0.193359 0.22851,-0.642578 -1.5039,-2.759765 -1.17578,-2.152344 5.01172,-4.791016 0.63476,-2.800781 -0.77148,-2.621094 -1.82617,-3.3125 -1.4336,-7.101562 z"
     id="rect8"
     inkscape:connector-curvature="0" />
</svg>
