<?xml version="1.0" encoding="UTF-8"?>
<svg id="Layer_2" data-name="Layer 2" xmlns="http://www.w3.org/2000/svg" viewBox="0 0 31.55 19.5">
  <defs>
    <style>
      .cls-1 {
        fill: #fff;
      }
    </style>
  </defs>
  <g id="Layer_1-2" data-name="Layer 1">
    <path class="cls-1" d="m30.62,15.79v-.31h.13v-.06h-.32v.06h.13v.31h.07Zm.63,0v-.38h-.1l-.11.26-.11-.26h-.1v.38h.07v-.29l.11.25h.07l.11-.25v.29h.07Zm-16.33,1.88c.08.07.16.13.24.2-1.55,1.03-3.4,1.63-5.4,1.63C4.36,19.5,0,15.13,0,9.75S4.36,0,9.75,0c2,0,3.85.6,5.4,1.63-.08.06-.16.13-.24.19-2.3,2-3.61,4.89-3.61,7.92s1.32,5.93,3.61,7.92ZM21.8,0C19.8,0,17.95.6,16.4,1.63c.08.06.16.13.24.2,2.3,2,3.61,4.89,3.61,7.92s-1.32,5.93-3.61,7.92c-.08.07-.16.13-.24.2,1.55,1.03,3.4,1.63,5.4,1.63,5.38,0,9.75-4.36,9.75-9.75S27.18,0,21.8,0Zm-6.02,2.09c-.13.1-.25.2-.37.31-2.05,1.79-3.35,4.42-3.35,7.36s1.3,5.57,3.35,7.36c.12.1.24.21.37.31.13-.1.25-.2.37-.31,2.05-1.79,3.35-4.42,3.35-7.36s-1.3-5.57-3.35-7.36c-.12-.1-.24-.21-.37-.31"/>
  </g>
</svg>