<?xml version="1.0" encoding="utf-8"?>
<!-- Generator: Adobe Illustrator 21.0.0, SVG Export Plug-In . SVG Version: 6.00 Build 0)  -->
<svg version="1.1" id="Layer_1" xmlns="http://www.w3.org/2000/svg" xmlns:xlink="http://www.w3.org/1999/xlink" x="0px" y="0px"
	 viewBox="0 0 340 340" style="enable-background:new 0 0 340 340;" xml:space="preserve">
<style type="text/css">
	.st0{fill:url(#SVGID_1_);}
	.st1{fill:url(#SVGID_2_);}
	.st2{fill:url(#SVGID_3_);}
	.st3{fill:url(#SVGID_4_);}
	.st4{fill:url(#SVGID_5_);}
	.st5{fill:url(#SVGID_6_);}
</style>
<g>
	<g>
		<linearGradient id="SVGID_1_" gradientUnits="userSpaceOnUse" x1="59.1002" y1="345.5665" x2="117.3659" y2="403.8322">
			<stop  offset="0" style="stop-color:#fff"/>
			<stop  offset="1" style="stop-color:#fff"/>
		</linearGradient>
		<path class="st0" d="M31.9,306.2l-8.8,19.6h4l1.7-3.7h10.2l1.7,3.7h4L36,306.2H31.9z M30.3,318.7l3.6-8.3l3.6,8.3H30.3z"/>
		<linearGradient id="SVGID_2_" gradientUnits="userSpaceOnUse" x1="87.7569" y1="316.9098" x2="146.0226" y2="375.1754">
			<stop  offset="0" style="stop-color:#fff"/>
			<stop  offset="1" style="stop-color:#fff"/>
		</linearGradient>
		<path class="st1" d="M88.5,306.2c-2.4,0-5.3,0-7.7,0v19.6c2.4,0,5.3,0,7.7,0c6.9,0,9.9-5,9.8-10C98.2,311,95.2,306.2,88.5,306.2z
			 M88.5,322.3h-4v-12.5h4c4.3,0,6,3.1,6.1,6.1C94.7,319,93,322.3,88.5,322.3z"/>
		<linearGradient id="SVGID_3_" gradientUnits="userSpaceOnUse" x1="115.9701" y1="288.6966" x2="174.2357" y2="346.9623">
			<stop  offset="0" style="stop-color:#fff"/>
			<stop  offset="1" style="stop-color:#fff"/>
		</linearGradient>
		<polygon class="st2" points="148.2,314.5 138.5,314.5 138.5,306.3 134.8,306.3 134.8,325.9 138.5,325.9 138.5,317.9 148.2,317.9 
			148.2,325.9 151.8,325.9 151.8,306.3 148.2,306.3 		"/>
		<linearGradient id="SVGID_4_" gradientUnits="userSpaceOnUse" x1="141.191" y1="263.4757" x2="199.4567" y2="321.7413">
			<stop  offset="0" style="stop-color:#fff"/>
			<stop  offset="1" style="stop-color:#fff"/>
		</linearGradient>
		<path class="st3" d="M196.1,306.2l-8.8,19.6h4l1.7-3.7h10.2l1.7,3.7h4l-8.8-19.6H196.1z M194.5,318.7l3.6-8.3l3.6,8.3H194.5z"/>
		<linearGradient id="SVGID_5_" gradientUnits="userSpaceOnUse" x1="169.796" y1="234.8707" x2="228.0616" y2="293.1364">
			<stop  offset="0" style="stop-color:#fff"/>
			<stop  offset="1" style="stop-color:#fff"/>
		</linearGradient>
		<path class="st4" d="M261,312.7c0-3.4-2.4-6.5-7.1-6.5c-3.1,0-6.2,0-9.3,0v19.6h3.7v-6.6h3.6l5.7,6.6h4.4v-0.3l-5.9-6.7
			C259.8,318.1,261,315.4,261,312.7z M248.4,315.9v-6.3h5.6c2.3,0,3.4,1.6,3.4,3.1c0,1.6-1,3.1-3.4,3.1H248.4z"/>
		<linearGradient id="SVGID_6_" gradientUnits="userSpaceOnUse" x1="195.2994" y1="209.3673" x2="253.5651" y2="267.6329">
			<stop  offset="0" style="stop-color:#fff"/>
			<stop  offset="1" style="stop-color:#fff"/>
		</linearGradient>
		<path class="st5" d="M308.4,306.2h-4l-8.8,19.6h4l1.7-3.7h10.2l1.7,3.7h4L308.4,306.2z M302.7,318.7l3.6-8.3l3.6,8.3H302.7z"/>
	</g>
	<g>
		<defs>
			<path id="SVGID_7_" d="M171.3,9.5c-1.7-3.3-4.6-3.3-6.3,0L41.4,249.6c-1.7,3.3-0.1,6.1,3.7,6.1h36.6c3.8,0,8.2-2.7,9.9-6.1
				L165,103.9c1.7-3.4,4.5-3.4,6.2,0L221.6,204c1.7,3.4,0,6.1-3.8,6.1l-53.1-0.1c-3.8,0-8.2,2.7-10,6.1l-17.1,33.3
				c-1.7,3.3-0.1,6.1,3.7,6.1l99.4,0.2c3.8,0,6.8,0,6.9,0c0,0,3.1,0,6.9,0h37.9c3.8,0,5.4-2.7,3.7-6.1L171.3,9.5L171.3,9.5z"/>
		</defs>
		<linearGradient id="SVGID_8_" gradientUnits="userSpaceOnUse" x1="24.0805" y1="49.3653" x2="274.6084" y2="299.8932">
			<stop  offset="0" style="stop-color:#fff"/>
			<stop  offset="1" style="stop-color:#fff"/>
		</linearGradient>
		<use xlink:href="#SVGID_7_"  style="overflow:visible;fill-rule:evenodd;clip-rule:evenodd;fill:url(#SVGID_8_);"/>
		<clipPath id="SVGID_9_">
			<use xlink:href="#SVGID_7_"  style="overflow:visible;"/>
		</clipPath>
	</g>
</g>
</svg>
