<?xml version="1.0" encoding="UTF-8"?>
<svg width="120px" height="49px" viewBox="0 0 120 49" version="1.1" xmlns="http://www.w3.org/2000/svg" xmlns:xlink="http://www.w3.org/1999/xlink">
    <title>Group 6</title>
    <defs>
        <polygon id="path-1" points="0 0.003312 119.999986 0.003312 119.999986 19.92 0 19.92"></polygon>
    </defs>
    <g id="Page-1" stroke="none" stroke-width="1" fill="none" fill-rule="evenodd">
        <g id="Barclays01" transform="translate(-261.000000, -376.000000)">
            <g id="Group-6" transform="translate(261.000000, 376.000000)">
                <g id="Group-3" transform="translate(0.000000, 28.991040)">
                    <mask id="mask-2" fill="white">
                        <use xlink:href="#path-1"></use>
                    </mask>
                    <g id="Clip-2"></g>
                    <path d="M6.5576496,19.118208 L-1.44e-05,19.118208 C0.8262576,18.388848 1.0448976,15.547632 1.4088336,10.544112 L1.4813616,9.379008 C1.6766736,6.537072 1.8219696,4.3512 1.7976336,2.82216 C1.7735376,1.510176 1.6274736,0.65976 1.2625776,0.368448 L8.5972656,0.368448 C10.3458576,0.368448 13.8437136,0.46608 13.8437136,4.108224 C13.8437136,6.537072 11.5844976,8.042736 9.5204016,8.578416 C12.4346736,8.869776 14.6207856,10.277808 14.6207856,13.28904 C14.6202096,16.543296 11.5604016,19.118208 6.5576496,19.118208 M6.2662896,10.059024 L4.9307856,10.059024 L4.7362896,12.827424 C4.6435056,13.974912 4.5867216,15.12504 4.5660816,16.27608 C4.5660816,16.4472 5.1004176,16.811184 6.3623376,16.811184 C8.9854896,16.811184 10.7106096,15.499776 10.7106096,13.337424 C10.7106096,10.93296 8.7427536,10.059024 6.2662896,10.059024 M6.8723376,2.627616 C6.5078256,2.627616 6.0227376,2.627616 5.5609776,2.676864 C5.3666736,3.988032 5.2448976,5.250816 5.1486576,6.634704 C5.1486576,6.634704 5.0750736,7.823904 5.0750736,7.775664 L5.5609776,7.775664 C7.9413936,7.775664 10.1280336,6.950208 10.1280336,4.76568 C10.1282256,3.50136 9.0831216,2.627616 6.8723376,2.627616 M29.9939376,19.287648 C28.3921776,19.287648 28.2704016,19.239984 26.9833296,14.819808 L26.5217616,13.192368 C25.7431536,13.556064 24.3594096,13.726464 22.1492016,13.726464 L19.9148976,13.726464 L19.5268656,14.551968 C19.1380176,15.42744 18.1905936,17.22528 18.2148816,18.269232 C18.2148816,18.51216 18.2390256,18.755136 18.3366576,19.119024 L13.8439056,19.119024 C15.1307856,17.831952 16.7584176,14.84472 19.0170576,10.011552 L20.3288016,7.218816 C21.5182416,4.693296 22.7819376,1.827216 22.7819376,1.414128 C22.7819376,1.048608 22.6858896,0.709584 22.5390096,0.369216 L26.6202096,0.369216 C26.6202096,0.369216 27.6868656,4.425456 28.6351056,7.800576 L29.4362736,10.764288 C30.8209776,15.743712 31.6949136,18.171552 32.8607856,19.118832 C31.8166416,19.239984 30.5045136,19.287648 29.9939376,19.287648 M24.0937296,4.76568 L21.0558576,11.297616 L25.9862736,11.297616 L24.0937296,4.76568 M47.7472656,19.92 C46.3633296,19.92 46.0229136,19.700592 45.5621616,19.068816 L40.3156656,11.78256 C39.9025776,11.224128 39.5870736,10.76256 38.9317776,10.76256 L38.8100016,10.76256 L38.7139056,12.171552 C38.5913616,14.0904 38.5188336,15.621936 38.5188336,16.762752 C38.5429296,18.025488 38.6889936,18.801744 39.0294096,19.118256 L33.9531216,19.118256 C34.6809936,18.462144 34.9472496,16.276272 35.3612016,10.544112 L35.4346896,9.35472 C35.6290416,6.53784 35.7751056,4.3512 35.7500016,2.82216 C35.7250896,1.48608 35.5806096,0.659808 35.2150896,0.368448 L42.1366416,0.368448 C44.3952816,0.368448 47.5040976,0.758016 47.5040976,4.424736 C47.5040976,7.435296 45.4876656,9.087648 42.9870576,9.863904 C43.2299856,10.083504 43.6664976,10.641936 43.9343376,10.982352 L47.7468816,16.034304 C50.1274416,19.167408 50.3209776,19.312752 51.1721616,19.749984 C50.1035376,19.8708 48.6711696,19.92 47.7472656,19.92 M40.9725456,2.65176 C40.5109776,2.65176 39.9509616,2.65176 39.5150736,2.700192 C39.3692016,3.50136 39.2474736,4.885872 39.0770736,7.1196 L38.9796336,8.432352 C39.2239056,8.48136 39.5388336,8.506464 39.8307696,8.506464 C42.1611696,8.506464 43.7650896,7.096272 43.7650896,4.960176 C43.7650896,3.50136 42.7452816,2.65176 40.9725456,2.65176 M57.7302096,19.482768 C52.8968496,19.482768 50.1035376,15.499776 50.1035376,11.031216 C50.1035376,4.814112 53.4788016,0.003504 59.9152656,0.003504 C61.9307856,0.003504 62.8790256,0.368256 64.5048816,0.368256 L64.0197936,5.152944 C63.0968496,3.477072 61.5903696,2.335296 59.5754736,2.335296 C55.5684336,2.335296 53.9409456,6.659376 53.9409456,10.375296 C53.9409456,14.40648 56.2002096,16.61568 59.2107696,16.61568 C60.8384016,16.61568 62.2705776,16.178448 64.6758576,14.503296 C63.7042896,17.613312 61.4451216,19.482768 57.7302096,19.482768 M90.7836816,19.287648 C89.1796176,19.287648 89.0594256,19.240032 87.7717296,14.819808 L87.3107856,13.192368 C86.5344816,13.556112 85.1483856,13.726512 82.9389936,13.726512 L80.7046896,13.726512 L80.3158416,14.551968 C79.7574576,15.792192 79.0044816,17.247072 79.0044816,18.269232 C79.0044816,18.51216 79.0288176,18.778464 79.1264496,19.119024 L65.8651056,19.119024 C66.6186096,18.269232 66.8615856,15.52512 67.2254736,10.544736 L67.2981936,9.355488 C67.4925456,6.513504 67.6401936,4.327632 67.6142736,2.79864 C67.5901776,1.536096 67.4684016,0.73392 67.1284176,0.369792 L72.2539056,0.369792 C71.5244976,0.929232 71.2566576,3.9396 70.9178256,8.9196 L70.8201936,10.108848 C70.6984176,11.95512 70.4562576,13.848864 70.4562576,15.695136 C70.4562576,16.54392 70.7960496,16.738224 71.6715696,16.738224 C74.7789936,16.738224 75.5574576,16.665696 76.9646736,15.718464 C77.8386096,14.11512 78.8358576,12.09864 79.8058416,10.0104 L81.1194096,7.217856 C82.3572336,4.594752 83.5707696,1.92216 83.5707696,1.413168 C83.5707696,1.047648 83.4739056,0.708672 83.3296176,0.368256 L87.4092336,0.368256 C87.4092336,0.368256 89.0601936,6.489408 89.4248976,7.799616 L90.2252976,10.763328 C91.6092336,15.742752 92.4845136,18.170592 93.6505776,19.117824 C92.6776656,19.239984 91.2936816,19.287648 90.7836816,19.287648 M84.8813616,4.76568 L81.8707536,11.297664 L86.7760656,11.297664 L84.8813616,4.76568 M102.538834,9.014112 C102.09997,9.74352 101.54389,10.737648 101.201746,11.467824 C100.911394,12.85176 100.76509,14.698848 100.76509,16.73784 C100.76509,17.588256 100.911202,18.729216 101.299426,19.118256 L96.2239056,19.118256 C97.1211696,18.268464 97.4866416,13.04784 97.4390256,11.395296 C96.7588176,9.039792 95.8340976,6.780624 94.4262576,4.035696 C93.5297616,2.31216 92.4840816,0.682992 91.8280176,0.368256 C92.9688336,0.272352 94.4262576,0.198864 95.1315696,0.198864 C96.3935376,0.198864 96.7349136,0.368256 97.5127536,2.069232 C98.7248976,4.814304 99.6236976,6.876912 100.15861,8.408256 C101.446258,6.391968 102.34429,5.008032 103.510354,3.113328 C103.80157,2.65176 104.04469,2.069232 104.04469,1.510032 C104.04469,1.071984 103.971154,0.587088 103.777666,0.368256 L108.805522,0.368256 C107.833522,0.587088 103.460962,7.460832 102.538834,9.014112 M119.51509,4.813296 C118.73725,3.40392 117.06037,2.334528 115.239394,2.334528 C113.637634,2.334528 112.228834,2.990592 112.228834,4.691568 C112.228834,6.123936 114.002338,7.095264 115.84861,8.286288 C117.863362,9.549024 119.95333,11.102352 119.95333,13.799808 C119.95333,17.32176 116.528818,19.482576 112.569394,19.482576 C110.941954,19.482576 109.242514,19.167264 107.323714,18.438432 L107.638402,13.750608 C108.562306,15.621552 110.287474,17.102352 112.83565,17.102352 C114.803698,17.102352 116.260162,16.155888 116.260162,14.503296 C116.260162,13.094544 115.069234,12.220608 113.613538,11.346672 C110.552146,9.50136 108.610594,8.018256 108.610594,5.34744 C108.610594,1.338864 111.961714,0.003312 115.434706,0.003312 C117.44941,0.003312 118.713874,0.367824 119.999986,0.367824 L119.51509,4.813296" id="Fill-1" fill="#FFFFFF" mask="url(#mask-2)"></path>
                </g>
                <path d="M59.16,0.0020208 C58.510368,0.0020208 58.376064,0.1151568 58.165296,0.3502608 C58.078752,0.3450288 57.992016,0.3427248 57.90528,0.3432048 C57.405312,0.3432048 56.763552,0.4167408 56.216064,0.7828368 C55.68744,1.1318448 55.435872,1.7496528 55.717872,2.2018128 C55.717872,2.2018128 55.906896,1.9245648 56.52864,1.9245648 C56.615904,1.9245648 56.712768,1.9340208 56.81592,1.9426128 C57.675072,2.0441808 58.310784,2.4961488 58.23336,3.6902448 C58.164528,4.8835728 57.717072,6.2143728 55.886496,6.2298768 C55.886496,6.2298768 55.650576,6.2298768 55.3992,6.2065488 C54.547248,6.1136208 54.279408,5.5787088 54.279408,5.5787088 C54.279408,5.5787088 55.01592,5.3786928 55.021968,4.4439888 C55.01592,3.8082768 54.462144,3.2265168 53.663136,2.9914608 C53.401584,2.9149968 53.114112,2.8775088 52.81512,2.8775088 C51.87312,2.8775088 50.81592,3.2720208 50.102736,4.2028368 C48.486288,6.3371088 48.355104,9.4485168 48.749424,12.3418608 C49.146096,15.2416368 50.985312,17.9271408 51.039216,18.0006768 C51.07824,18.0522288 51.11352,18.0802608 51.15336,18.0802608 C51.176976,18.0788208 51.199296,18.0690768 51.21648,18.0528048 C52.010784,17.2820208 52.768224,16.2285168 53.092176,15.5241648 C53.439024,15.8006448 53.257872,16.3886928 53.067264,17.0165328 C52.886064,17.6582928 52.445712,18.5104368 52.286256,18.7853808 C52.13256,19.0541808 51.926256,19.3665168 52.203552,19.5296688 C52.231776,19.5469488 52.267632,19.5563088 52.310592,19.5563088 C52.666656,19.5563088 53.504736,18.9355728 54.439392,17.6890608 C55.485888,16.2867408 56.016864,15.0416208 56.016864,15.0416208 C56.09352,15.0589008 56.221392,15.1885008 56.200416,15.5416368 C56.186496,15.9000528 55.817856,17.2339728 55.100208,18.4755408 C54.374736,19.7165328 53.704704,20.4927888 53.569392,20.6692848 C53.48592,20.7714288 53.557056,20.8355568 53.610816,20.8771248 C53.663952,20.9130288 54.94704,22.1110128 56.811168,23.1229968 C59.0196,24.3000528 59.998992,24.5116368 59.998992,24.5116368 C59.998992,24.5116368 60.975888,24.3053328 63.184512,23.1292848 C65.047824,22.1155248 66.336288,20.9120208 66.383904,20.8714128 C66.437616,20.8345488 66.506496,20.7770928 66.42528,20.6643888 C66.298032,20.4957648 65.625696,19.7155728 64.901568,18.4745808 C64.186272,17.2416048 63.80352,15.8990448 63.798048,15.5453328 C63.783312,15.1885008 63.903504,15.0704688 63.976896,15.0408528 C63.976896,15.0408528 64.513296,16.2936048 65.559792,17.6882928 C66.4992,18.9363408 67.329408,19.5555408 67.687248,19.5555408 C67.732368,19.5555408 67.768464,19.5461328 67.798032,19.5289008 C68.066688,19.3657488 67.866864,19.0487088 67.708992,18.7830288 C67.56216,18.5096688 67.115472,17.6631888 66.92568,17.0157648 C66.743712,16.3808688 66.554736,15.7935888 66.907632,15.5233968 C67.232544,16.2279408 67.984512,17.2867248 68.78136,18.0465648 C68.798736,18.0664848 68.823552,18.0784368 68.85,18.0794928 C68.88528,18.0794928 68.922768,18.0520368 68.955456,18.0043728 C69.014112,17.9263248 70.856256,15.2453808 71.249808,12.3408528 C71.645088,9.4412208 71.51472,6.3371088 69.896496,4.2018288 C69.188256,3.2687088 68.122944,2.8720368 67.174896,2.8720368 C66.878832,2.8720368 66.596256,2.9100528 66.337632,2.9843568 C65.532576,3.2263248 64.981152,3.8136048 64.985664,4.4430288 C64.985664,5.3779248 65.725872,5.5777008 65.725872,5.5777008 C65.725872,5.5777008 65.47824,6.0994608 64.595856,6.2055408 C64.430976,6.2259408 64.270992,6.2351568 64.117824,6.2351568 C63.453936,6.2351568 62.894928,6.0243888 62.379408,5.2965168 C61.879584,4.5961488 61.896096,3.1536048 61.867248,2.6726448 C61.844544,2.1845808 61.74,1.0894608 61.226688,0.6428208 C60.715296,0.1843728 60.09216,0.0304848 59.314896,5.28e-05 C59.258448,0.0020208 59.207664,0.0020208 59.16,0.0020208" id="Fill-4" fill="#FFFFFF"></path>
            </g>
        </g>
    </g>
</svg>