<?xml version="1.0" encoding="utf-8"?>
<!-- Generator: Adobe Illustrator 26.4.1, SVG Export Plug-In . SVG Version: 6.00 Build 0)  -->
<svg version="1.1" id="Layer_1" xmlns="http://www.w3.org/2000/svg" xmlns:xlink="http://www.w3.org/1999/xlink" x="0px" y="0px"
	 viewBox="0 0 309.1 79.1" style="enable-background:new 0 0 309.1 79.1;" xml:space="preserve">
<style type="text/css">
	.st0{fill:#FFFFFF;}
</style>
<path class="st0" d="M46.3,58.3c-3.1,2.4-7,3.7-10.9,3.5c-11.2,0-18.7-8.6-18.7-22.2c0-13.9,7.4-22.4,18.7-22.4
	c3.7-0.1,7.3,1,10.3,3.1l8.4-11.4c-5.2-3.5-10.3-5.6-20.2-5.6C12.3,3.3,0,17.8,0,39.5c0,22.3,12.9,36.2,33.9,36.2
	c13.4,0,18.6-4.6,21-6.2L46.3,58.3z"/>
<path class="st0" d="M198.3,58.1c-3.1,2.5-7.1,3.8-11.1,3.7c-11.2,0-18.7-8.6-18.7-22.3c0-13.9,7.4-22.4,18.7-22.4
	c3.7-0.1,7.3,1,10.3,3.1L205.9,9c-5.2-3.5-10.3-5.6-20.2-5.6c-21.5,0-33.9,14.5-33.9,36.3c0,22.3,12.9,36.2,33.9,36.2
	c13.4,0,18.6-4.6,21-6.2L198.3,58.1z"/>
<path class="st0" d="M118.4,4.5c15.5,0,23.6,6.2,23.6,17.9c0,8.5-5.5,12.8-10.8,15v0.1c6.2,1.8,13.5,5.8,13.5,16.9
	c0,12.9-9.5,20-26.8,20H93.2v-70H118.4z M116.3,44.1h-6.8v18.1h7c7,0,11.7-2.8,11.7-8.8C128.2,46.9,123.5,44.1,116.3,44.1
	L116.3,44.1z M116.3,16.2h-6.8v16.2h6.4c6.1,0,10.6-2.5,10.6-8C126.4,20.6,124.1,16.2,116.3,16.2L116.3,16.2z"/>
<polygon class="st0" points="62,74.5 78.2,74.5 78.2,4.6 62,4.6 "/>
<path class="st0" d="M282.2,3c-1.5-2-3.8-3.1-6.3-3h-26.1c2.5-0.1,4.9,1.1,6.3,3.1c2.6,3.5,26.9,36.4,26.9,36.4S258.8,72.5,256.2,76
	c-1.4,2-3.8,3.2-6.3,3.1h26.1c2.5,0.1,4.8-1,6.3-3l26.9-36.6L282.2,3z"/>
<path class="st0" d="M262.9,12.2L262.9,12.2c-3.3-4.5-5.9-8-6.7-9c-2.7-3.5-7.7-4.2-11.2-1.5c-0.5,0.4-1,0.9-1.4,1.4l-26.9,36.5
	l26.9,36.5c2.7,3.5,7.8,4,11.2,1.3c0.5-0.4,1-0.9,1.4-1.4l6.7-9l-20.2-27.4L262.9,12.2z"/>
</svg>
