<?xml version="1.0" encoding="UTF-8"?>
<svg width="120px" height="108px" viewBox="0 0 120 108" version="1.1" xmlns="http://www.w3.org/2000/svg" xmlns:xlink="http://www.w3.org/1999/xlink">
    <title>Group 6</title>
    <defs>
        <polygon id="path-1" points="0 0 120 0 120 12.4958486 0 12.4958486"></polygon>
    </defs>
    <g id="Page-1" stroke="none" stroke-width="1" fill="none" fill-rule="evenodd">
        <g id="Deutsche_Bank01" transform="translate(-258.000000, -346.000000)">
            <g id="Group-6" transform="translate(258.000000, 346.975594)">
                <path d="M19.565167,80.869666 L100.43715,80.869666 L100.43715,0 L19.565167,0 L19.565167,80.869666 Z M30.8677351,69.5647808 L89.134582,69.5647808 L89.134582,11.1403746 L30.8677351,11.1403746 L30.8677351,69.5647808 Z" id="Fill-1" fill="#FEFEFE"></path>
                <polygon id="Fill-2" fill="#FEFEFE" points="37.8916393 61.1290983 67.0239042 18.1455107 82.7844758 17.8280749 52.6975864 61.1290983"></polygon>
                <g id="Group-5" transform="translate(0.000000, 93.552964)">
                    <mask id="mask-2" fill="white">
                        <use xlink:href="#path-1"></use>
                    </mask>
                    <g id="Clip-4"></g>
                    <path d="M111.688743,0 L114.079938,0 L114.079938,6.57810388 L116.830276,3.34813671 L119.701101,3.34813671 L116.770033,6.7565167 L120,12.3174358 L117.189419,12.3174358 L115.157366,8.48966982 L114.079938,9.62734119 L114.079938,12.3174358 L111.688743,12.3174358 L111.688743,0 Z M101.764819,3.34813671 L104.156015,3.34813671 L104.156015,4.36532149 C104.454914,4.0061788 104.814057,3.7072794 105.291369,3.46862329 C105.828925,3.28789342 106.308554,3.16972388 106.725623,3.16972388 C107.564395,3.16972388 108.22012,3.40838 108.820236,3.76752269 C109.418034,4.24483491 109.77486,4.84263371 109.77486,5.5609191 L109.77486,12.3174358 L107.383665,12.3174358 L107.383665,6.39737401 C107.383665,6.03823132 107.265495,5.73933192 107.024522,5.5609191 C106.725623,5.32226299 106.426723,5.26201969 106.069898,5.26201969 C105.590268,5.26201969 105.231126,5.32226299 104.932226,5.50067581 C104.633327,5.73933192 104.394671,5.98030508 104.156015,6.39737401 L104.156015,12.3174358 L101.764819,12.3174358 L101.764819,3.34813671 Z M97.2790114,9.26819849 L97.2790114,7.89187102 C96.5027998,8.0123576 95.905001,8.19077042 95.4253717,8.311257 C94.5286735,8.54991311 94.1092875,8.96929909 94.1092875,9.50685461 C94.1092875,9.92624059 94.1695308,10.1648967 94.410504,10.3433095 C94.6491601,10.5240394 94.9480595,10.5842827 95.3651284,10.5842827 C95.7845144,10.5842827 96.2039004,10.4637961 96.5630431,10.22514 C96.9198687,10.0444101 97.1608419,9.68526743 97.2790114,9.26819849 L97.2790114,9.26819849 Z M94.410504,6.03823132 L92.0169917,6.03823132 C92.0169917,5.08128982 92.4363777,4.36532149 93.2149064,3.82544893 C93.9308747,3.40838 94.7673296,3.16972388 95.7845144,3.16972388 C97.1608419,3.16972388 98.1757096,3.40838 98.8337517,3.82544893 C99.3713072,4.24483491 99.6702066,4.72446418 99.6702066,5.38018923 L99.6702066,10.880865 C99.6702066,11.4207376 99.8509365,11.8980498 100.210079,12.3174358 L97.7586407,12.3174358 C97.6381541,12.1367059 97.5176675,12.0185364 97.4597413,11.8378065 C97.399498,11.719637 97.3392547,11.5389071 97.2790114,11.300251 C96.980112,11.719637 96.5630431,12.0185364 96.0834138,12.1969492 C95.6640278,12.3776791 95.1264723,12.4958486 94.4684302,12.4958486 C93.6319753,12.4958486 92.9739332,12.1969492 92.496621,11.719637 C91.9567484,11.1797644 91.6601661,10.5240394 91.6601661,9.80575401 C91.6601661,9.08746862 91.8988222,8.42942653 92.3158911,7.95211431 C92.7352771,7.47480209 93.3330759,7.17590268 94.1092875,7.0554161 C95.485615,6.81675999 96.1436571,6.69627341 96.2039004,6.69627341 C96.9198687,6.51786059 97.2790114,6.27688743 97.2790114,6.03823132 C97.2790114,5.67908863 97.1608419,5.38018923 96.8596254,5.26201969 C96.6209693,5.08128982 96.2641437,5.02336358 95.7845144,5.02336358 C95.3651284,5.02336358 95.066229,5.14153311 94.7673296,5.26201969 C94.5286735,5.44043252 94.410504,5.67908863 94.410504,6.03823132 L94.410504,6.03823132 Z M82.690867,7.0554161 L82.690867,10.1046534 L85.9185171,10.1046534 C86.3981464,10.1046534 86.7572891,9.98416683 87.1141147,9.62734119 C87.4130141,9.32844178 87.593744,8.96929909 87.593744,8.54991311 C87.593744,8.13052713 87.4130141,7.77370149 87.1141147,7.47480209 C86.7572891,7.17590268 86.3981464,7.0554161 85.9185171,7.0554161 L82.690867,7.0554161 Z M82.690867,2.21278239 L82.690867,4.84263371 L85.7401043,4.84263371 C86.1594902,4.84263371 86.5163159,4.72446418 86.8152153,4.48349102 C87.1141147,4.24483491 87.2346013,3.94593551 87.2346013,3.58679282 C87.2346013,3.16972388 87.1141147,2.87082448 86.8152153,2.57192508 C86.5163159,2.33095192 86.2174165,2.21278239 85.8003476,2.21278239 L82.690867,2.21278239 Z M80.1791852,12.3174358 L80.1791852,0 L86.4583897,0 C87.3550879,0 88.1312995,0.298899401 88.7290983,0.956941494 C89.3871404,1.61498359 89.7462831,2.39119521 89.7462831,3.34813671 C89.7462831,3.88569222 89.6257965,4.36532149 89.3871404,4.84263371 C89.088241,5.32226299 88.668855,5.67908863 88.1915428,5.92006179 C88.7893416,6.1587179 89.2666538,6.57810388 89.6860398,7.0554161 C90.0451825,7.59297162 90.2235953,8.13052713 90.2235953,8.73064298 C90.2235953,9.74551072 89.8644526,10.5842827 89.2087276,11.2400077 C88.5506855,11.9582931 87.8324001,12.3174358 86.8754586,12.3174358 L80.1791852,12.3174358 Z M68.0424792,6.87700328 L71.8076849,6.87700328 C71.8076849,6.4576173 71.5690288,6.03823132 71.2098861,5.73933192 C70.8530604,5.38018923 70.4336745,5.2017764 69.9540452,5.2017764 C69.476733,5.2017764 68.9994207,5.38018923 68.640278,5.73933192 C68.2811354,6.03823132 68.0424792,6.4576173 68.0424792,6.87700328 L68.0424792,6.87700328 Z M71.8076849,9.44661131 L74.1409539,9.44661131 C73.960224,10.4637961 73.4226685,11.1797644 72.5862136,11.7798803 C71.8679282,12.2571925 70.97123,12.4958486 69.9540452,12.4958486 C68.7005213,12.4958486 67.6833366,12.0185364 66.8468816,11.1218382 C66.0081097,10.22514 65.648967,9.08746862 65.648967,7.65321491 C65.648967,6.39737401 66.0081097,5.32226299 66.8468816,4.48349102 C67.6230933,3.64703611 68.7005213,3.16972388 69.9540452,3.16972388 C71.6895154,3.16972388 72.885113,3.82544893 73.543155,5.08128982 C73.8420545,5.50067581 74.0204673,6.03823132 74.1409539,6.57810388 C74.2591234,7.17590268 74.2591234,7.77370149 74.2591234,8.42942653 L68.0424792,8.42942653 C68.0424792,8.9090558 68.2208921,9.32844178 68.5800348,9.74551072 C68.9391774,10.22514 69.4164897,10.4637961 69.9540452,10.4637961 C70.3734312,10.4637961 70.7325739,10.3433095 71.0917165,10.22514 C71.3906159,10.0444101 71.6292721,9.80575401 71.8076849,9.44661131 L71.8076849,9.44661131 Z M55.9636996,0 L58.3548948,0 L58.3548948,4.3050782 C58.6537942,3.88569222 59.0731802,3.58679282 59.5528094,3.40838 C60.0301216,3.28789342 60.5676772,3.16972388 61.1052327,3.16972388 C61.8837613,3.16972388 62.6020467,3.40838 63.1998455,3.88569222 C63.7976443,4.3050782 64.0965437,4.96312029 64.0965437,5.67908863 L64.0965437,12.3174358 L61.7632748,12.3174358 L61.7632748,6.69627341 C61.7632748,6.21896119 61.5848619,5.8598185 61.3438888,5.62116239 C61.1052327,5.38018923 60.748407,5.26201969 60.329021,5.26201969 C59.8493918,5.26201969 59.3720796,5.38018923 58.9526936,5.67908863 C58.5958679,5.98030508 58.3548948,6.33713072 58.3548948,6.81675999 L58.3548948,12.3174358 L55.9636996,12.3174358 L55.9636996,0 Z M50.3448542,12.4958486 C49.0890133,12.4958486 48.0718285,12.0185364 47.2353736,11.1218382 C46.456845,10.22514 46.039776,9.08746862 46.039776,7.65321491 C46.039776,6.4576173 46.456845,5.38018923 47.2932999,4.48349102 C48.1320718,3.64703611 49.1469396,3.16972388 50.3448542,3.16972388 C51.4199652,3.16972388 52.3769067,3.52886658 53.1531184,4.18459162 C53.9918903,4.78239042 54.4089593,5.62116239 54.4089593,6.57810388 L52.017764,6.57810388 C52.017764,6.1587179 51.8393512,5.8598185 51.5404518,5.62116239 C51.1813091,5.32226299 50.8221664,5.2017764 50.3448542,5.2017764 C49.7470554,5.2017764 49.3276694,5.44043252 48.9685267,5.92006179 C48.6696273,6.33713072 48.4888975,6.93492952 48.4888975,7.65321491 C48.4888975,8.48966982 48.6696273,9.14771191 48.9685267,9.68526743 C49.3276694,10.1648967 49.7470554,10.4637961 50.3448542,10.4637961 C50.7619232,10.4637961 51.1813091,10.2853833 51.4802085,9.98416683 C51.8393512,9.68526743 52.017764,9.38636802 52.017764,8.96929909 L54.4089593,8.96929909 C54.4089593,9.98416683 53.9918903,10.880865 53.1531184,11.5389071 C52.3166634,12.1367059 51.4199652,12.4958486 50.3448542,12.4958486 L50.3448542,12.4958486 Z M36.8318208,9.26819849 L39.223016,9.26819849 C39.223016,9.68526743 39.3435026,10.0444101 39.7003282,10.2853833 C39.9992277,10.5240394 40.4186136,10.6422089 40.8959259,10.6422089 C41.3153118,10.6422089 41.6744545,10.5842827 41.9131106,10.4637961 C42.21201,10.3433095 42.3904229,10.0444101 42.3904229,9.68526743 C42.3904229,9.2079552 41.9733539,8.84881251 41.0164124,8.6101564 C39.4616721,8.19077042 38.5649739,7.95211431 38.4444874,7.83162773 C37.4898629,7.4145588 37.0102336,6.81675999 37.0102336,5.98030508 C37.0102336,5.14153311 37.3693763,4.48349102 38.0274184,3.94593551 C38.6854605,3.40838 39.5821587,3.16972388 40.6572697,3.16972388 C41.7346978,3.16972388 42.5711527,3.40838 43.2894381,3.88569222 C44.0656497,4.42556478 44.4850357,5.14153311 44.4850357,6.1587179 L42.2722533,6.1587179 C42.21201,5.79957521 42.0335972,5.50067581 41.7346978,5.32226299 C41.4357984,5.14153311 41.0766557,5.02336358 40.6572697,5.02336358 C40.2981271,5.02336358 39.9992277,5.14153311 39.7605715,5.26201969 C39.5219154,5.44043252 39.4014288,5.62116239 39.4014288,5.92006179 C39.4014288,6.27688743 39.8810581,6.57810388 40.7777563,6.7565167 C42.1517668,6.99517281 43.048465,7.17590268 43.3473644,7.3543155 C44.3043059,7.77370149 44.7839351,8.48966982 44.7839351,9.50685461 C44.7839351,10.5240394 44.3645491,11.300251 43.5280942,11.7798803 C42.8098088,12.2571925 41.9733539,12.4958486 40.8959259,12.4958486 C39.7003282,12.4958486 38.7433868,12.1969492 37.9671751,11.5991504 C37.1909635,11.0615949 36.8318208,10.2853833 36.8318208,9.26819849 L36.8318208,9.26819849 Z M34.4383086,0.776211624 L34.4383086,3.34813671 L35.814636,3.34813671 L35.814636,5.02336358 L34.4383086,5.02336358 L34.4383086,9.62734119 C34.4383086,9.80575401 34.5587951,9.98416683 34.6792817,10.1046534 C34.7974512,10.22514 34.9781811,10.2853833 35.2168372,10.2853833 L35.5759799,10.2853833 C35.6941494,10.22514 35.7543927,10.22514 35.814636,10.22514 L35.814636,12.3174358 C35.5157366,12.3776791 35.2168372,12.4356053 35.0384244,12.4356053 C34.7974512,12.4958486 34.4985518,12.4958486 34.0814829,12.4958486 C33.4836841,12.4958486 33.0642981,12.3174358 32.6449121,11.8980498 C32.2880865,11.5389071 32.1073566,11.1218382 32.1073566,10.5842827 L32.1073566,5.02336358 L30.911759,5.02336358 L30.911759,3.34813671 L32.1073566,3.34813671 L32.1073566,2.1525391 L34.4383086,0.776211624 Z M21.7640471,3.34813671 L24.1552423,3.34813671 L24.1552423,9.26819849 C24.1552423,9.5670979 24.3336551,9.8659973 24.5746283,10.1046534 C24.8735277,10.3433095 25.2303534,10.4637961 25.589496,10.4637961 C26.0691253,10.4637961 26.4885113,10.3433095 26.8453369,10.0444101 C27.2044796,9.68526743 27.3828925,9.32844178 27.3828925,8.9090558 L27.3828925,3.34813671 L29.7161614,3.34813671 L29.7161614,12.3174358 L27.3828925,12.3174358 L27.3828925,11.1797644 C26.6669241,12.0764626 25.7702259,12.4958486 24.6927978,12.4958486 C23.9165862,12.4958486 23.2585441,12.2571925 22.7209886,11.8980498 C22.1231898,11.4809809 21.7640471,10.880865 21.7640471,10.1648967 L21.7640471,3.34813671 Z M14.0505889,6.87700328 L17.7578683,6.87700328 C17.7578683,6.4576173 17.5794555,6.03823132 17.2203128,5.73933192 C16.8009268,5.38018923 16.3815408,5.2017764 15.9042286,5.2017764 C15.4269164,5.2017764 15.0075304,5.38018923 14.6483877,5.73933192 C14.2290017,6.03823132 14.0505889,6.4576173 14.0505889,6.87700328 L14.0505889,6.87700328 Z M17.7578683,9.44661131 L20.1490635,9.44661131 C19.9706507,10.4637961 19.4307781,11.1797644 18.5943232,11.7798803 C17.8783549,12.2571925 16.9793396,12.4958486 15.9042286,12.4958486 C14.6483877,12.4958486 13.63352,12.0185364 12.8549913,11.1218382 C12.0185364,10.22514 11.5991504,9.08746862 11.5991504,7.65321491 C11.5991504,6.39737401 12.0185364,5.32226299 12.794748,4.48349102 C13.63352,3.64703611 14.6483877,3.16972388 15.9042286,3.16972388 C17.697625,3.16972388 18.8932226,3.82544893 19.5512647,5.08128982 C19.7899208,5.50067581 19.9706507,6.03823132 20.0888202,6.57810388 C20.2093068,7.17590268 20.2695501,7.77370149 20.2695501,8.42942653 L14.0505889,8.42942653 C14.0505889,8.9090558 14.2290017,9.32844178 14.5279011,9.74551072 C14.9472871,10.22514 15.3666731,10.4637961 15.9042286,10.4637961 C16.3236146,10.4637961 16.7406835,10.3433095 17.0395829,10.22514 C17.3987256,10.0444101 17.6373817,9.80575401 17.7578683,9.44661131 L17.7578683,9.44661131 Z M2.57192508,2.21278239 L2.57192508,10.1046534 L4.96312029,10.1046534 C5.92006179,10.1046534 6.57810388,9.68526743 7.0554161,8.9090558 C7.47480209,8.19077042 7.65321491,7.29407221 7.65321491,6.1587179 C7.65321491,5.2017764 7.47480209,4.3050782 7.0554161,3.58679282 C6.57810388,2.62985132 5.8598185,2.21278239 4.96312029,2.21278239 L2.57192508,2.21278239 Z M0,12.3174358 L0,0 L5.26201969,0 C6.93492952,0 8.19077042,0.658042093 9.14771191,1.97180923 C9.92392354,3.10948059 10.3433095,4.48349102 10.3433095,6.1587179 C10.3433095,7.77370149 9.92392354,9.2079552 9.02722533,10.4035528 C8.07260089,11.6593937 6.81675999,12.3174358 5.26201969,12.3174358 L0,12.3174358 Z" id="Fill-3" fill="#FEFEFE" mask="url(#mask-2)"></path>
                </g>
            </g>
        </g>
    </g>
</svg>