<?xml version="1.0" encoding="UTF-8"?>
<svg width="120px" height="50px" viewBox="0 0 120 50" version="1.1" xmlns="http://www.w3.org/2000/svg" xmlns:xlink="http://www.w3.org/1999/xlink">
    <title>Fill 1</title>
    <g id="Page-1" stroke="none" stroke-width="1" fill="none" fill-rule="evenodd">
        <g id="Goldman_Sachs01" transform="translate(-258.000000, -374.000000)" fill="#FFFFFF">
            <path d="M268.481729,374.285922 L267.241525,374.385939 L266.06133,374.585772 L264.941345,374.945831 L263.920977,375.42611 L263.000825,376.006206 L262.140683,376.686318 L261.380558,377.446244 L260.680442,378.266579 L260.040337,379.186731 L259.520251,380.146689 L259.040172,381.167058 L258.660109,382.227232 L258.380063,383.307411 L258.160026,384.427596 L258.040007,385.54758 L258,386.667965 L258,387.78815 L258.06001,388.868328 L258.160026,389.948507 L258.360059,390.968475 L258.580096,391.988843 L258.860142,392.948802 L259.200398,393.869153 L259.620267,394.729295 L260.140353,395.529427 L260.720449,396.269549 L261.380558,396.949662 L262.12068,397.529757 L262.961019,398.049843 L263.88117,398.429906 L264.941345,398.749959 L266.06133,398.949992 L264.941345,399.330054 L263.861167,399.809934 L262.880805,400.410233 L262.440933,400.770292 L262.020663,401.150355 L261.640601,401.570424 L261.320548,401.990493 L261.000695,402.470573 L260.740452,402.950652 L260.540419,403.490741 L260.380393,404.03083 L260.280576,404.570919 L260.220366,405.171018 L260.260573,405.871134 L260.320383,406.511239 L260.420399,407.091335 L260.580426,407.631424 L260.800662,408.111503 L261.060505,408.591383 L261.380558,409.031655 L261.740617,409.411718 L262.160687,409.831787 L262.640766,410.191847 L263.720944,410.951772 L264.961349,411.712097 L266.441393,412.552036 L268.621753,413.792441 L269.521901,414.372336 L270.262023,414.972635 L270.902329,415.612741 L271.122165,415.972801 L271.342201,416.33286 L271.502228,416.712723 L271.622448,417.092785 L271.722264,417.533058 L271.762271,417.972931 L271.762271,418.873079 L271.642251,419.693414 L271.422415,420.493346 L271.262388,420.853406 L271.062355,421.173659 L270.802112,421.453705 L270.542269,421.733751 L270.222017,421.953787 L269.901964,422.173824 L269.521901,422.33385 L269.102032,422.433867 L268.621753,422.533883 L268.101667,422.57389 L267.241525,422.533883 L266.761646,422.433867 L266.281366,422.33385 L265.761281,422.133817 L265.241195,421.913781 L264.721109,421.593528 L264.201023,421.213465 L263.720944,420.733586 L263.240865,420.15349 L262.760786,419.473378 L262.340716,418.673246 L261.920647,417.773098 L261.560587,416.712723 L261.240535,415.532728 L260.980692,414.192307 L260.18036,414.192307 L260.18036,423.294009 L268.141673,423.294009 L269.001815,423.254002 L269.841954,423.133982 L270.642086,422.973956 L271.442418,422.753919 L272.18234,422.473673 L272.862652,422.133817 L273.522561,421.713748 L274.102657,421.233669 L274.642746,420.713583 L275.122825,420.133287 L275.542895,419.533388 L275.882951,418.833272 L276.162997,418.133157 L276.36303,417.373032 L276.48325,416.5729 L276.523056,415.712758 L276.48325,414.812609 L276.36303,414.012277 L276.142994,413.272355 L275.882951,412.592243 L275.542895,412.012147 L275.162832,411.472058 L274.722759,410.951772 L274.24268,410.511899 L273.702591,410.09183 L273.162502,409.711567 L272.022314,409.031655 L269.721934,407.811454 L267.561578,406.731276 L266.721439,406.191187 L266.06133,405.651097 L265.781284,405.390854 L265.521241,405.071002 L265.301405,404.750949 L265.141378,404.410893 L265.021158,404.03083 L264.921142,403.610761 L264.821125,402.690409 L264.861132,402.27054 L264.921142,401.85047 L265.141378,401.150355 L265.501438,400.510049 L265.981317,399.989963 L266.581616,399.570094 L267.261528,399.249841 L268.021854,399.049808 L268.841789,398.989998 L269.581911,399.049808 L270.282027,399.249841 L270.922132,399.510084 L271.462221,399.870144 L271.982507,400.250206 L272.42238,400.690079 L272.762436,401.130352 L273.042682,401.570424 L273.562568,402.570589 L273.942831,403.530748 L274.262683,404.550916 L274.48292,405.730911 L275.282852,405.730911 L275.282852,386.007856 L267.321538,386.007856 L267.321538,386.687969 L268.24169,386.787985 L268.761776,386.908005 L269.201848,387.108038 L269.462091,387.268064 L269.681928,387.488101 L269.881961,387.767947 L270.081994,388.048193 L270.202013,388.408252 L270.322033,388.828122 L270.382043,389.268394 L270.382043,389.78848 L270.382043,393.90916 L270.342236,394.869318 L270.24202,395.889487 L270.122,396.369366 L269.961974,396.809639 L269.761941,397.229708 L269.501898,397.549761 L269.082029,397.90982 L268.601749,398.189666 L268.00185,398.349693 L267.321538,398.409903 L266.661429,398.349693 L266.141343,398.14966 L265.701271,397.869814 L265.321408,397.509754 L265.061165,397.089485 L264.841129,396.649612 L264.561083,395.829277 L264.401256,395.009342 L264.281036,394.109193 L264.0612,391.988843 L263.960984,389.568244 L263.900974,386.827792 L263.94098,385.287737 L264.00099,383.827497 L264.101007,382.427265 L264.261033,381.106848 L264.461066,379.926853 L264.681102,378.866678 L264.941345,377.966529 L265.261198,377.286217 L265.541244,376.766131 L265.901304,376.286252 L266.281366,375.90619 L266.701436,375.586137 L267.141508,375.325894 L267.661794,375.125861 L268.24169,375.006041 L268.841789,374.965834 L269.381878,375.026044 L269.861957,375.125861 L270.342236,375.325894 L270.782109,375.54613 L271.202178,375.865983 L271.622448,376.186236 L271.982507,376.606105 L272.322563,377.046378 L272.962469,378.046343 L273.502558,379.166728 L273.922627,380.386729 L274.30289,381.626933 L275.002805,381.626933 L275.002805,374.285922 L268.481729,374.285922 Z M312.96907,374.705991 L312.96907,380.146689 L312.769037,379.78683 L312.508994,379.42677 L312.188941,379.146724 L311.868888,378.886681 L311.488826,378.686648 L311.048753,378.526622 L310.768707,378.486615 L310.768707,379.246541 L311.08876,379.286547 L311.428816,379.406767 L311.749069,379.626603 L311.968905,379.946856 L312.328964,380.586962 L312.589007,381.4269 L312.78904,382.387259 L312.90906,383.407227 L313.009277,384.527612 L313.069086,385.647797 L313.069086,387.828157 L313.109093,390.08833 L313.069086,391.308731 L313.009277,392.488926 L312.90906,393.629114 L312.709027,394.649282 L312.428981,395.549431 L312.268954,395.90949 L312.048918,396.229543 L311.728865,396.609606 L311.409012,396.869648 L311.02895,397.029675 L310.768707,397.089485 L310.768707,397.90982 L310.96874,397.84981 L311.508829,397.649577 L311.948902,397.369731 L312.328964,397.049678 L312.649217,396.669615 L312.929063,396.229543 L313.1491,395.749464 L313.1491,397.829607 L317.849875,397.829607 L317.849875,374.705991 L312.96907,374.705991 Z M295.746428,397.84981 L300.707047,397.84981 L300.707047,374.705991 L295.746428,374.705991 L295.746428,397.84981 Z M353.615777,378.346392 L353.615777,379.086514 L353.775803,379.086514 L354.215876,379.146724 L354.596138,379.266544 L354.875985,379.466777 L355.136227,379.72682 L355.296054,380.046873 L355.416074,380.426935 L355.45608,380.867008 L355.45608,384.287572 L355.416074,384.647432 L355.356064,384.927678 L355.196037,385.207524 L354.935994,385.427761 L354.555932,385.687803 L354.015843,385.96785 L353.595773,386.167883 L353.595773,386.225292 L352.395575,386.747978 L350.315232,387.66813 L349.355074,388.188216 L348.915001,388.468262 L348.534938,388.788315 L348.154876,389.128371 L347.794816,389.508434 L347.51477,389.948507 L347.254727,390.428386 L347.054694,390.968475 L346.894668,391.548771 L346.794651,392.228683 L346.754645,392.928998 L346.794651,393.72913 L346.894668,394.429246 L347.054694,395.069351 L347.254727,395.609441 L347.51477,396.129526 L347.794816,396.549396 L348.115069,396.929658 L348.475128,397.209705 L348.854991,397.469748 L349.235054,397.689784 L349.995179,397.96983 L350.795311,398.129856 L351.535633,398.169663 L352.295559,398.129856 L352.995674,398.009837 L353.595773,397.809604 L353.615777,397.809604 L353.615777,397.779799 L354.115859,397.529757 L354.595938,397.169698 L355.016008,396.809639 L355.33626,396.369366 L355.596103,395.889487 L355.63611,397.809604 L360.356889,397.809604 L360.356889,383.587257 L360.316882,382.727315 L360.196862,381.96699 L360.036836,381.327084 L359.8168,380.746988 L359.496747,380.266909 L359.136688,379.84684 L358.716618,379.48678 L358.236539,379.166728 L357.476614,378.826671 L356.616272,378.566628 L355.556097,378.366395 L354.315892,378.306586 L353.615777,378.346392 Z M353.855816,387.088035 L355.45608,386.087869 L355.45608,392.989008 L355.416074,393.66892 L355.316057,394.349233 L355.196037,394.929128 L354.996004,395.469217 L354.775968,395.949497 L354.495922,396.329559 L354.175869,396.649612 L353.795806,396.869648 L353.595773,396.929458 L353.595773,396.956263 L353.495757,396.989668 L353.175904,397.029675 L352.855651,396.969665 L352.535598,396.849645 L352.275755,396.629609 L352.075522,396.309556 L351.915696,395.869483 L351.81548,395.329394 L351.75547,394.08919 L351.75547,392.868988 L351.795476,391.78881 L351.835483,390.828652 L351.995509,389.768477 L352.115529,389.288398 L352.315562,388.808118 L352.575605,388.368246 L352.935664,387.948176 L353.355734,387.528107 L353.63578,387.328074 L353.63578,387.257262 L353.855816,387.088035 Z M338.833338,378.306586 L338.073212,378.426605 L337.3931,378.626638 L336.793001,378.906485 L336.252912,379.266544 L335.812839,379.686813 L335.432776,380.126886 L335.15293,380.606965 L334.932694,381.086844 L334.572634,380.386929 L334.152565,379.78683 L333.672486,379.306751 L333.132397,378.886681 L332.492291,378.606635 L331.832182,378.406602 L331.072057,378.306586 L330.271925,378.306586 L329.572009,378.406602 L328.97171,378.606635 L328.391615,378.826671 L327.871529,379.146724 L327.431656,379.526787 L327.051594,379.90685 L326.731341,380.346722 L326.471298,380.786995 L326.471298,378.646642 L322.030765,378.646642 L322.030765,397.809604 L326.831357,397.809604 L326.831357,383.007361 L326.871564,382.087209 L327.03139,381.287077 L327.191417,380.927018 L327.351443,380.606965 L327.571479,380.326919 L327.851526,380.066876 L328.271595,379.78683 L328.651658,379.66681 L329.03172,379.626603 L329.411983,379.66681 L329.791846,379.826636 L330.051889,380.086879 L330.271925,380.446939 L330.391945,380.867008 L330.491961,381.347087 L330.551971,381.867173 L330.591978,383.007361 L330.591978,397.829807 L335.412773,397.829807 L335.412773,382.967355 L335.45278,382.067206 L335.612806,381.307081 L335.732826,380.947021 L335.932859,380.626968 L336.152895,380.346722 L336.433141,380.086879 L336.853011,379.806633 L337.233073,379.686813 L337.613136,379.646607 L337.993199,379.686813 L338.373262,379.84684 L338.633304,380.106883 L338.853341,380.466942 L338.973361,380.886811 L339.073377,381.367091 L339.133587,381.887176 L339.173394,383.027365 L339.173394,397.84981 L343.994189,397.84981 L343.994189,384.047533 L343.954182,383.307411 L343.894173,382.647302 L343.774153,382.007196 L343.614326,381.4269 L343.414093,380.886811 L343.194057,380.406932 L342.914211,379.986663 L342.593958,379.6068 L342.233899,379.246541 L341.853836,378.966695 L341.433767,378.726455 L340.953687,378.526622 L340.473608,378.406602 L339.953522,378.346392 L339.413433,378.306586 L338.833338,378.306586 Z M285.424525,379.006701 L285.784584,379.046708 L286.064631,379.106518 L286.324674,379.206734 L286.54491,379.326754 L286.744943,379.48678 L286.944776,379.686813 L287.224822,380.166693 L287.445058,380.806998 L287.604885,381.567124 L287.724905,382.467272 L287.825121,383.467437 L287.884931,385.767817 L287.884931,388.288233 L287.884931,390.848655 L287.825121,393.128831 L287.724905,394.1492 L287.604885,395.049348 L287.445058,395.809474 L287.224822,396.409573 L286.944776,396.889652 L286.744943,397.109488 L286.54491,397.269514 L286.324674,397.389734 L286.064631,397.489751 L285.784584,397.549761 L285.424525,397.549761 L285.424525,398.229873 L286.064631,398.189666 L286.66473,398.129856 L287.204819,397.96983 L287.744908,397.769797 L288.264994,397.509754 L288.78508,397.229708 L289.745238,396.529592 L290.445353,395.829277 L291.085459,395.029345 L291.665555,394.109193 L292.105627,393.089025 L292.48589,392.008846 L292.745733,390.828652 L292.905759,389.60845 L292.965769,388.288033 L292.905759,387.007821 L292.745733,385.767617 L292.48589,384.627629 L292.105627,383.507444 L291.665555,382.487275 L291.085459,381.587127 L290.445353,380.746988 L289.725235,380.006666 L288.765076,379.306751 L288.24499,379.026704 L287.724905,378.766661 L287.184815,378.566628 L286.644726,378.446609 L286.044627,378.346392 L285.424525,378.326589 L285.424525,379.006701 Z M285.429401,378.354066 L285.429401,378.355598 L285.454932,378.354066 L285.429401,378.354066 Z M284.824426,378.366395 L284.224527,378.466612 L283.644231,378.626638 L283.124346,378.846675 L282.60426,379.106718 L282.083974,379.386764 L281.643901,379.746823 L281.203829,380.126886 L280.563723,380.766992 L279.963624,381.527117 L279.383528,382.387259 L278.903449,383.347417 L278.48338,384.427596 L278.163327,385.60779 L277.963294,386.888002 L277.903484,388.268029 L277.963294,389.588447 L278.12332,390.808448 L278.383363,391.988843 L278.763426,393.069021 L279.203499,394.08919 L279.783594,395.009342 L280.4239,395.809474 L281.123815,396.509589 L282.083974,397.209705 L282.564053,397.489751 L283.084139,397.749794 L283.624228,397.949827 L284.204524,398.109853 L284.804423,398.169663 L285.404522,398.20987 L285.404522,397.529757 L285.084469,397.529757 L284.804423,397.469748 L284.54438,397.369731 L284.324344,397.249511 L284.124311,397.089485 L283.924278,396.869648 L283.644231,396.389569 L283.424195,395.78947 L283.224162,395.029345 L283.124346,394.129196 L283.024129,393.109028 L282.964319,390.828652 L282.924112,388.268029 L282.964319,385.747613 L283.024129,383.447434 L283.124346,382.447269 L283.224162,381.54712 L283.424195,380.786995 L283.644231,380.146689 L283.924278,379.66681 L284.124311,379.466777 L284.324344,379.306751 L284.54438,379.186731 L284.804423,379.086514 L285.084469,379.026704 L285.404522,378.986698 L285.404522,378.327789 L284.824426,378.366395 Z M372.798942,378.346392 L372.098826,378.446609 L371.458721,378.646642 L370.858622,378.866678 L370.318533,379.186731 L369.87846,379.566794 L369.458391,379.946856 L369.138338,380.386929 L368.878295,380.827001 L368.878295,378.686648 L364.337746,378.686648 L364.337746,397.84981 L369.238354,397.84981 L369.238354,383.047168 L369.278361,382.127216 L369.438387,381.327084 L369.558407,381.007031 L369.75844,380.686978 L369.978476,380.366726 L370.258523,380.106883 L370.678592,379.826636 L371.098661,379.706817 L371.538934,379.66681 L371.918797,379.706817 L372.298859,379.866843 L372.578906,380.126886 L372.779139,380.486945 L372.938965,380.906815 L373.038981,381.387094 L373.078988,381.90718 L373.118995,383.047168 L373.118995,397.869814 L378,397.869814 L378,384.067536 L377.959793,383.327414 L377.899783,382.667305 L377.779764,382.027199 L377.619737,381.446904 L377.419704,380.906815 L377.159661,380.426935 L376.899818,380.006666 L376.579766,379.626603 L376.199703,379.266544 L375.81944,378.986698 L375.399371,378.766661 L374.919292,378.566628 L374.439212,378.446609 L373.919127,378.386399 L373.379038,378.346392 L372.798942,378.346392 Z M353.597884,378.374035 L353.648948,378.374035 L353.597884,378.374035 Z M353.57577,378.346392 L352.875654,378.406602 L352.175539,378.526622 L351.535433,378.686648 L350.935334,378.886681 L350.355239,379.106718 L349.835153,379.386764 L349.355074,379.66681 L348.935004,379.986663 L348.554942,380.346722 L348.234889,380.726985 L347.974846,381.147054 L347.775013,381.567124 L347.654793,381.987193 L347.594783,382.427265 L347.554777,382.907345 L347.654793,383.447434 L347.854826,383.927513 L348.114869,384.307376 L348.434922,384.587622 L348.754975,384.807658 L349.135037,384.967685 L349.5151,385.067701 L349.855156,385.127711 L350.395245,385.087704 L350.935334,384.987688 L351.415414,384.827662 L351.855486,384.547615 L352.235549,384.187556 L352.495592,383.707477 L352.655618,383.167388 L352.655618,382.527282 L352.595608,382.087209 L352.435782,381.72715 L352.275755,381.447104 L352.075722,381.187061 L351.795476,380.666975 L351.69546,380.406932 L351.655453,380.086879 L351.715663,379.826636 L351.875489,379.626603 L352.035516,379.466577 L352.255552,379.306751 L352.775638,379.146724 L353.255717,379.046708 L353.57577,379.046708 L353.57577,378.346392 Z M309.348472,378.446609 L308.708567,378.566628 L308.068261,378.786665 L307.468162,379.066711 L306.928073,379.446574 L306.387984,379.866843 L305.867898,380.406932 L305.427826,380.987028 L305.007756,381.626933 L304.627694,382.327049 L304.307641,383.127381 L304.027795,383.947316 L303.807558,384.807658 L303.607525,385.767617 L303.507509,386.727975 L303.447499,387.78815 L303.487705,389.328404 L303.687538,390.988478 L303.847765,391.84862 L304.067601,392.668955 L304.327644,393.488891 L304.647697,394.289223 L305.02776,395.049348 L305.467832,395.749464 L305.987918,396.389369 L306.568014,396.929458 L307.208119,397.369731 L307.908235,397.689784 L308.708567,397.90982 L309.608715,397.96983 L310.348638,397.929823 L310.768707,397.869814 L310.768707,397.049678 L310.548671,397.049678 L310.208614,396.989668 L309.888562,396.829642 L309.608715,396.609606 L309.348472,396.269549 L309.128436,395.84928 L308.928403,395.329394 L308.808383,394.729295 L308.688364,394.02898 L308.588347,392.648952 L308.488331,391.048688 L308.448324,387.66813 L308.488331,385.567584 L308.60835,383.707477 L308.828387,382.087209 L308.988413,381.347087 L309.208449,380.606965 L309.428486,380.086879 L309.748539,379.646607 L309.908565,379.446574 L310.128601,379.326754 L310.348638,379.226737 L310.60868,379.186731 L310.768707,379.226737 L310.768707,378.506619 L310.748704,378.506619 L310.548671,378.446609 L310.028585,378.406602 L309.348472,378.446609 Z M317.877518,397.880245 L317.877518,397.854458 L317.877518,397.880245 Z M309.628519,400.2102 L309.628519,414.112494 L309.568509,414.912426 L309.448489,415.712758 L309.288463,416.472883 L309.068426,417.233008 L308.78838,417.992934 L308.468327,418.693049 L308.108268,419.393165 L307.728205,420.033471 L307.288133,420.63357 L306.84806,421.153655 L306.327974,421.633735 L305.808088,422.053804 L305.267999,422.373857 L304.687703,422.6339 L304.087604,422.753919 L303.487705,422.813929 L303.047433,422.773923 L302.627364,422.713913 L302.267304,422.593893 L301.947251,422.473673 L301.667405,422.313647 L301.407162,422.09361 L300.96709,421.613731 L300.647037,421.033436 L300.4272,420.39353 L300.266974,419.693414 L300.146954,418.953292 L299.887111,416.652913 L299.786895,414.03228 L299.826901,412.632249 L299.887111,411.171808 L299.986928,409.691564 L300.146954,408.15151 L300.206964,407.551211 L300.326984,406.911305 L300.48701,406.311006 L300.747053,405.730911 L301.067106,405.210825 L301.447169,404.830762 L301.667405,404.710942 L301.947251,404.590923 L302.227498,404.530913 L302.54735,404.490706 L302.987423,404.550916 L303.307676,404.650732 L303.567519,404.770952 L303.687538,404.970985 L303.747548,405.190821 L303.747548,405.390854 L303.647732,405.611091 L303.527512,405.811124 L303.007426,406.451029 L302.747583,406.811089 L302.527347,407.191152 L302.327314,407.631424 L302.227498,408.111303 L302.227498,408.631389 L302.347317,409.211685 L302.467337,409.531538 L302.627364,409.811784 L302.827397,410.071627 L303.087439,410.27166 L303.367486,410.471893 L303.647732,410.591713 L304.287637,410.751739 L304.96775,410.751739 L305.648062,410.631719 L305.967915,410.511899 L306.247961,410.351873 L306.528207,410.15184 L306.748043,409.931804 L307.108103,409.491531 L307.328139,408.971445 L307.448359,408.431356 L307.508169,407.891267 L307.468162,407.351178 L307.348142,406.811089 L307.188116,406.33101 L306.928073,405.890937 L306.54821,405.410858 L306.127941,404.990788 L305.687868,404.630729 L305.167783,404.350683 L304.587687,404.15065 L303.987588,403.990823 L303.287472,403.890807 L302.527347,403.8508 L302.007261,403.890807 L301.427165,403.990823 L300.827066,404.15065 L300.186961,404.370886 L299.546855,404.650732 L298.866743,405.030795 L298.226637,405.511074 L297.626538,406.051163 L297.046443,406.651062 L296.506354,407.391185 L295.986268,408.21152 L295.566198,409.131472 L295.206139,410.191847 L294.946096,411.311831 L294.746063,412.592043 L294.706056,413.97247 L294.746063,415.432711 L294.946096,416.772733 L295.206139,417.952927 L295.566198,418.973296 L296.006271,419.893447 L296.526357,420.693379 L297.066446,421.373692 L297.666545,421.953587 L298.346657,422.433867 L299.026769,422.813929 L299.706882,423.093976 L300.366991,423.353818 L301.067106,423.514045 L301.707212,423.613861 L302.947616,423.714078 L303.627529,423.674071 L304.267634,423.553851 L304.867733,423.393825 L305.447829,423.133982 L305.967915,422.853736 L306.488001,422.533683 L306.96808,422.15362 L307.388149,421.733751 L307.768212,421.313682 L308.148274,420.833603 L308.748373,419.833237 L309.228453,418.833272 L309.588512,417.852911 L309.588512,423.353818 L314.469317,423.353818 L314.469317,408.531573 L314.509324,407.631424 L314.66935,406.831092 L314.829377,406.511039 L314.989403,406.191187 L315.249446,405.871134 L315.509489,405.590887 L315.929558,405.331045 L316.349628,405.210825 L316.7897,405.171018 L317.20977,405.210825 L317.569829,405.370851 L317.849875,405.631094 L318.069912,405.991154 L318.189931,406.411223 L318.289948,406.851095 L318.329954,407.391185 L318.369961,408.531573 L318.369961,423.353818 L323.250766,423.353818 L323.250766,409.531738 L323.27097,409.531738 L323.230763,408.791416 L323.170753,408.111503 L323.050733,407.471398 L322.890707,406.891302 L322.690674,406.351213 L322.430631,405.871134 L322.170588,405.431061 L321.850535,405.050998 L321.470673,404.730946 L321.09041,404.450699 L320.670341,404.230863 L320.190261,404.03083 L319.710182,403.91081 L319.190096,403.810794 L318.650007,403.770587 L318.069912,403.810794 L317.469813,403.870804 L316.929723,403.990823 L316.409638,404.190856 L315.929558,404.450699 L315.509489,404.710942 L315.129426,405.030795 L314.769367,405.350848 L314.489321,405.730911 L314.489321,400.2102 L309.628519,400.2102 Z M331.712163,403.8508 L331.03225,403.91081 L330.431951,404.070837 L329.851856,404.230863 L329.311766,404.490706 L328.791681,404.750949 L328.351608,405.071002 L327.931539,405.431061 L327.551476,405.811124 L327.231423,406.231193 L326.97138,406.671266 L326.751344,407.111338 L326.591318,407.591418 L326.471298,408.111503 L326.371281,408.651593 L326.331275,409.191682 L326.371281,409.671761 L326.431291,410.15184 L326.551311,410.591713 L326.711537,410.971775 L326.91137,411.352038 L327.131407,411.732101 L327.711502,412.372206 L328.411618,413.012312 L329.251757,413.592408 L331.27209,414.812609 L332.232248,415.392705 L333.03238,415.972801 L333.692489,416.51289 L334.232578,417.032975 L334.652648,417.612871 L334.932694,418.193167 L335.09272,418.773263 L335.15273,419.453375 L335.09272,420.15329 L334.932694,420.753589 L334.672651,421.293678 L334.312592,421.773558 L333.872519,422.133617 L333.352433,422.413863 L332.772337,422.57389 L332.132232,422.613896 L331.592143,422.613896 L331.112063,422.553886 L330.672191,422.433867 L330.251922,422.27384 L329.871859,422.073807 L329.511799,421.813764 L329.231953,421.493711 L328.9117,421.173659 L328.391615,420.353523 L327.951542,419.333355 L327.571479,418.09315 L327.191417,416.692719 L326.551311,416.692719 L326.511304,423.414028 L331.652153,423.414028 L332.332265,423.373822 L333.012577,423.314012 L333.652483,423.213795 L334.292588,423.053969 L334.932694,422.853736 L335.51279,422.6339 L336.052879,422.353853 L336.572965,422.013797 L337.053044,421.633735 L337.473113,421.193462 L337.853176,420.673376 L338.173229,420.133287 L338.433271,419.533388 L338.633304,418.833272 L338.753324,418.09315 L338.793331,417.293018 L338.753324,416.612906 L338.653308,415.972801 L338.493281,415.432711 L338.293248,414.912426 L338.073212,414.432546 L337.753159,414.012277 L337.433106,413.632414 L337.053044,413.292158 L336.192902,412.612246 L335.232743,412.012147 L332.992574,410.771742 L332.132232,410.231653 L331.45212,409.711567 L330.91203,409.231688 L330.531968,408.711602 L330.271925,408.231323 L330.112098,407.751244 L330.051889,407.231358 L330.051889,406.711272 L330.151905,406.191187 L330.371941,405.750914 L330.691994,405.370851 L331.052054,405.050798 L331.492126,404.830762 L331.932399,404.670736 L332.412278,404.570919 L332.892357,404.530913 L333.33243,404.590923 L333.752499,404.690739 L334.112559,404.810959 L334.452615,405.010792 L334.812874,405.230828 L335.09272,405.511074 L335.612806,406.110973 L336.053079,406.851095 L336.413138,407.651427 L336.672981,408.511569 L336.893017,409.331505 L337.593133,409.331505 L337.593133,403.830797 L332.412278,403.830797 L332.412278,403.810794 L331.712163,403.8508 Z M285.264499,403.869603 L285.264499,403.8508 L284.524377,403.91081 L283.844464,404.03083 L283.204159,404.190856 L282.60426,404.390889 L282.023964,404.610926 L281.504078,404.870969 L281.023799,405.190821 L280.583726,405.511074 L280.223667,405.871134 L279.903814,406.250996 L279.643571,406.631059 L279.423535,407.071332 L279.303515,407.491401 L279.243505,407.931474 L279.243505,408.371546 L279.343722,408.951442 L279.543755,409.431721 L279.763591,409.811784 L280.083844,410.09183 L280.443903,410.311866 L280.823766,410.471893 L281.183825,410.571909 L281.563888,410.631919 L282.103977,410.591713 L282.624063,410.491896 L283.144349,410.291863 L283.584221,410.03162 L283.944281,409.651758 L284.224527,409.211685 L284.344347,408.671596 L284.384553,408.011487 L284.284337,407.571414 L284.164317,407.211355 L284.004291,406.891302 L283.804258,406.631059 L283.484405,406.15118 L283.384188,405.890937 L283.384188,405.570884 L283.444198,405.311041 L283.564218,405.111008 L283.764251,404.910975 L283.984287,404.790956 L284.504373,404.590923 L284.944646,404.530913 L285.244495,404.530913 L285.244495,404.610926 L285.444528,404.610926 L285.884601,404.670936 L286.24466,404.790956 L286.564713,404.990788 L286.784749,405.251031 L286.984782,405.571084 L287.084999,405.951147 L287.124806,406.39122 L287.124806,409.811784 L287.124806,410.171843 L287.024789,410.45189 L286.904969,410.711932 L286.644726,410.971975 L286.224657,411.232018 L285.684568,411.511864 L285.264499,411.712097 L285.264499,412.852286 L285.544545,412.632249 L287.104802,411.612081 L287.104802,418.553226 L287.064796,419.233138 L287.004786,419.873444 L286.884766,420.473543 L286.684733,421.013632 L286.464697,421.493711 L286.184851,421.873774 L285.824791,422.193827 L285.464732,422.413863 L285.264499,422.468272 L285.264499,422.45367 L285.144479,422.493876 L284.824426,422.533883 L284.504373,422.473673 L284.224527,422.353853 L283.964284,422.133817 L283.744248,421.813764 L283.624228,421.373692 L283.524211,420.833603 L283.424195,419.533388 L283.384188,418.313187 L283.424195,417.193002 L283.484405,416.27285 L283.604225,415.212675 L283.764251,414.732396 L283.924278,414.252517 L284.18432,413.812444 L284.54438,413.372371 L284.984452,412.992309 L285.244495,412.832282 L285.244495,411.691894 L284.024494,412.232183 L281.903944,413.152335 L280.943786,413.672421 L280.523716,413.952467 L280.103647,414.27252 L279.723784,414.612576 L279.403532,414.992639 L279.083479,415.432711 L278.863442,415.912791 L278.643606,416.432876 L278.523386,417.032975 L278.42337,417.673081 L278.383363,418.413203 L278.42337,419.213335 L278.523386,419.913451 L278.683413,420.553556 L278.883446,421.093645 L279.143489,421.613731 L279.423535,422.033801 L279.743588,422.373857 L280.063841,422.693909 L280.443903,422.953952 L280.823766,423.173989 L281.623898,423.454035 L282.42423,423.574055 L283.164152,423.634065 L283.924278,423.574055 L284.60439,423.474038 L285.244495,423.318813 L285.244495,423.334015 L285.784584,423.053969 L286.264664,422.733916 L286.644726,422.353853 L287.004786,421.933584 L287.264829,421.453705 L287.264829,423.373822 L291.985608,423.373822 L291.985608,409.131472 L291.945601,408.231323 L291.845585,407.491401 L291.645552,406.811089 L291.425715,406.271 L291.145469,405.791121 L290.765406,405.370851 L290.345537,405.010792 L289.865258,404.690939 L289.125136,404.33088 L288.264994,404.050833 L287.204819,403.890807 L285.984617,403.830797 L285.264499,403.869603 Z" id="Fill-1"></path>
        </g>
    </g>
</svg>