<?xml version="1.0" encoding="UTF-8"?>
<svg width="45px" height="44px" viewBox="0 0 45 44" version="1.1" xmlns="http://www.w3.org/2000/svg" xmlns:xlink="http://www.w3.org/1999/xlink">
    <!-- Generator: Sketch 55.2 (78181) - https://sketchapp.com -->
    <title>Group 10</title>
    <desc>Created with Sketch.</desc>
    <defs>
        <polygon id="path-1" points="9.67236258e-05 9.67236258e-05 34.3446251 9.67236258e-05 34.3446251 32.5402458 9.67236258e-05 32.5402458"></polygon>
    </defs>
    <g id="Page-1" stroke="none" stroke-width="1" fill="none" fill-rule="evenodd">
        <g id="Santander" transform="translate(-15.000000, -15.000000)">
            <g id="Group-10" transform="translate(15.759563, 15.000000)">
                <g id="Group-20" transform="translate(0.000000, 36.786885)" fill="#FFFFFF">
                    <path d="M18.9020147,2.82830572 C18.9491134,2.54542282 18.9726627,2.23899057 18.9962121,1.90900897 L17.2994961,1.90900897 L17.2994961,0.0707061894 C16.9693692,0.0707061894 16.5687395,0.117804885 16.2387579,0.235696989 L16.2387579,5.35012104 C16.2387579,6.52846062 16.8987211,6.99988367 17.9357646,6.99988367 C18.2185021,6.99988367 18.5484837,6.95278498 18.8313666,6.83489287 C18.8784653,6.55200997 18.925564,6.22217374 18.9491134,5.93929083 C18.7370239,6.03363359 18.430737,6.08073229 18.1241594,6.08073229 C17.605783,6.08073229 17.2994961,5.8215441 17.2994961,5.20867959 L17.2994961,2.82830572 L18.9020147,2.82830572 Z" id="Fill-1"></path>
                    <path d="M12.7977621,1.72052697 C12.3027897,1.72052697 11.5486291,1.83841907 10.8651166,2.00340987 L10.8651166,6.85850037 L11.9257094,6.85850037 L11.9257094,2.73402111 C12.2321417,2.68677705 12.5148792,2.6632277 12.7742128,2.6632277 C13.8348056,2.6632277 14.0939938,3.01675865 14.0939938,3.79461395 L14.0939938,6.85850037 L15.1545867,6.85850037 L15.1545867,3.60592844 C15.1545867,2.42758886 14.5889662,1.74407631 12.7977621,1.72052697" id="Fill-3"></path>
                    <path d="M2.73399204,3.11108687 L2.21547029,2.89899737 C1.53195775,2.61611447 1.15487745,2.30968222 1.15487745,1.81485519 C1.15487745,1.29633344 1.53195775,0.96635184 2.38046109,0.96635184 C2.82818943,0.96635184 3.46460328,1.0606946 3.98312503,1.24908938 C4.07732242,0.96635184 4.14811582,0.659919588 4.17166517,0.282839294 C3.62959408,0.0942991469 3.04027892,-4.3609903e-05 2.40401044,-4.3609903e-05 C0.848445199,-4.3609903e-05 0.0707352626,0.707018284 0.0707352626,1.81485519 C0.0707352626,2.82834933 0.683599766,3.34672571 1.60260579,3.74735535 L2.09757819,3.93604087 C2.99318023,4.33667051 3.37026052,4.5958587 3.37026052,5.16147914 C3.37026052,5.75064893 2.85188414,6.03353183 1.95613673,6.03353183 C1.43776035,6.03353183 0.730698461,5.9157851 0.188482001,5.65645154 C0.0707352626,5.98643314 0.0234912011,6.24562133 -5.81465373e-05,6.64625097 C0.542012947,6.90572989 1.20197615,7.02347663 1.97983145,7.02347663 C3.62959408,7.02347663 4.47809742,6.24562133 4.47809742,5.13792979 C4.47809742,4.19522906 3.95957568,3.62946325 2.73399204,3.11108687" id="Fill-5"></path>
                    <path d="M8.6261551,5.750678 C8.3432722,5.96291286 8.0132906,6.10435432 7.56556226,6.12790366 C6.62286153,6.12790366 6.22208652,5.4206964 6.22208652,4.43089697 C6.22208652,3.34675478 6.74060826,2.66324224 7.8482998,2.66324224 C8.15473205,2.66324224 8.41406561,2.66324224 8.6261551,2.71034093 L8.6261551,5.750678 Z M7.8482998,1.7205415 C6.05709572,1.7205415 5.13794433,2.71034093 5.13794433,4.40734762 C5.13794433,6.03356091 6.00999702,6.97640701 7.28267936,6.97640701 C7.9661919,6.97640701 8.36682155,6.69352411 8.64970445,6.26919975 L8.69680314,6.8585149 L9.68674794,6.8585149 L9.68674794,2.00342441 C9.14467685,1.81473889 8.55536169,1.74409085 7.8482998,1.7205415 L7.8482998,1.7205415 Z" id="Fill-8"></path>
                    <path d="M36.672774,3.88888402 C36.743422,3.06393003 37.144197,2.63960567 37.9219069,2.61605632 C38.6525182,2.61605632 39.0768425,3.08747937 39.0768425,3.88888402 L36.672774,3.88888402 Z M40.1374354,3.93598272 C40.1374354,2.71039908 39.4774722,1.72045428 37.9454563,1.72045428 C36.248595,1.72045428 35.5886318,2.87538988 35.5886318,4.31306301 C35.5886318,5.96297101 36.4371351,6.95277044 38.2283392,6.95277044 C38.817509,6.95277044 39.3124814,6.85857305 39.8073084,6.64633819 C39.8781018,6.33990594 39.9252005,5.96297101 39.9722992,5.67994274 C39.4539228,5.9392763 38.8646077,6.0571684 38.2754379,6.0571684 C37.3091878,6.0571684 36.8142154,5.65639339 36.672774,4.78448607 L40.0903367,4.78448607 C40.1374354,4.50160316 40.1374354,4.26596432 40.1374354,3.93598272 L40.1374354,3.93598272 Z" id="Fill-10"></path>
                    <path d="M42.9185552,1.72052697 C42.32924,1.72052697 41.5515301,1.83841907 41.1038018,2.00340987 L41.1038018,6.85850037 L42.1643946,6.85850037 L42.1643946,2.7103264 C42.4235828,2.68677705 42.682771,2.6632277 42.9421045,2.6632277 C43.2485368,2.6632277 43.4841756,2.68677705 43.7433638,2.7103264 C43.7904625,2.4982369 43.8375612,2.12115661 43.8375612,1.79117501 C43.6019224,1.74407631 43.2248421,1.74407631 42.9185552,1.72052697" id="Fill-12"></path>
                    <path d="M22.7672912,5.750678 C22.508103,5.96291286 22.1544267,6.10435432 21.7066984,6.12790366 C20.7639976,6.12790366 20.363368,5.4206964 20.363368,4.43089697 C20.363368,3.34675478 20.8817444,2.66324224 21.9894359,2.66324224 C22.2960135,2.66324224 22.5552017,2.66324224 22.7672912,2.71034093 L22.7672912,5.750678 Z M19.3027752,4.40734762 C19.3027752,6.03356091 20.1746825,6.97640701 21.4475102,6.97640701 C22.1308774,6.97640701 22.5316524,6.69352411 22.8143899,6.26919975 L22.8614886,6.8585149 L23.8514334,6.8585149 L23.8514334,2.00342441 C23.285813,1.81473889 22.7201925,1.74409085 22.0131306,1.7205415 C20.2217812,1.7205415 19.3027752,2.71034093 19.3027752,4.40734762 L19.3027752,4.40734762 Z" id="Fill-14"></path>
                    <path d="M33.6559862,5.750678 C33.3732487,5.96291286 33.0195724,6.10435432 32.5953934,6.12790366 C31.6526927,6.12790366 31.252063,5.4206964 31.252063,4.43089697 C31.252063,3.32320544 31.74689,2.66324224 32.8074829,2.66324224 C33.0903658,2.66324224 33.3732487,2.71034093 33.6559862,2.75758499 L33.6559862,5.750678 Z M33.6559862,0.188525611 L33.6559862,1.79118954 C33.396798,1.74409085 33.1376099,1.7205415 32.8545816,1.7205415 C31.0635229,1.7205415 30.1443715,2.71034093 30.1443715,4.40734762 C30.1443715,6.03356091 31.0162788,6.97640701 32.2891065,6.97640701 C32.996023,6.97640701 33.396798,6.69352411 33.6795356,6.2456504 L33.7266343,6.8585149 L34.7165791,6.8585149 L34.7165791,0.0707788725 C34.3630481,0.0707788725 33.9859678,0.0943282201 33.6559862,0.188525611 L33.6559862,0.188525611 Z" id="Fill-16"></path>
                    <path d="M26.9388982,1.72052697 C26.4440712,1.72052697 25.6897653,1.83841907 25.0062527,2.00340987 L25.0062527,6.85850037 L26.0668456,6.85850037 L26.0668456,2.73402111 C26.3732778,2.68677705 26.6561607,2.6632277 26.9153489,2.6632277 C27.9759417,2.6632277 28.2352753,3.01675865 28.2352753,3.79461395 L28.2352753,6.85850037 L29.3194175,6.85850037 L29.3194175,3.60592844 C29.3194175,2.42758886 28.7301023,1.74407631 26.9388982,1.72052697" id="Fill-18"></path>
                </g>
                <g id="Group-3" transform="translate(4.361639, 0.000000)">
                    <mask id="mask-2" fill="white">
                        <use xlink:href="#path-1"></use>
                    </mask>
                    <g id="Clip-2"></g>
                    <path d="M34.3437546,23.2094144 C34.4221007,19.6809365 30.5018921,16.4663268 24.6994418,14.9762993 C24.6210957,13.80014 24.3072275,12.6239808 23.6799748,11.6045137 L18.3480849,2.27358555 C17.9558706,1.5679867 17.6424861,0.784041711 17.4857938,9.67236258e-05 L17.2502718,0.391827408 C15.9174202,2.66579985 15.9174202,5.56702501 17.2502718,7.84099745 L21.5626946,15.2901675 C22.8955462,17.5641399 22.8955462,20.4653651 21.5626946,22.7388539 L21.3276562,23.1310682 C21.1709639,22.3471232 20.8570958,21.5626946 20.4653651,20.8570958 L16.5446729,14.0356621 L14.0356621,9.64440946 C13.6434478,8.93881061 13.3295796,8.15486562 13.1728873,7.37092063 L12.9378489,7.76265132 C11.6045137,10.0366238 11.6045137,12.8595028 12.9378489,15.2113377 L17.2502718,22.6605078 C18.5831233,24.9344802 18.5831233,27.8357054 17.2502718,30.1096778 L17.0152334,30.5018921 C16.8585411,29.7174635 16.5446729,28.9335185 16.1524586,28.2274361 L10.7422226,18.8969915 C10.0366238,17.6424861 9.72275559,16.2308048 9.72275559,14.8196071 C3.99865142,16.3091509 9.67236258e-05,19.5242442 9.67236258e-05,23.2094144 C9.67236258e-05,28.384612 7.68430518,32.5403425 17.1719256,32.5403425 C26.6595461,32.5403425 34.3437546,28.384612 34.3437546,23.2094144" id="Fill-1" fill="#FFFFFF" mask="url(#mask-2)"></path>
                </g>
            </g>
        </g>
    </g>
</svg>